<svg width="144" height="40" viewBox="0 0 144 40" fill="none" xmlns="http://www.w3.org/2000/svg"><path d="M39.257 14.795h4.44a6.233 6.233 0 0 1 2.482.446c.642.269 1.217.676 1.685 1.192a4.56 4.56 0 0 1 .94 1.712c.19.652.285 1.328.281 2.008v.771c.01.489-.036.977-.136 1.455a3.479 3.479 0 0 1-.401 1.039 3.83 3.83 0 0 1-.653.781 5.49 5.49 0 0 1-.895.635c.68.308 1.237.836 1.58 1.5.375.835.55 1.746.508 2.66v1.193a6.14 6.14 0 0 1-1.353 4.283 5.589 5.589 0 0 1-4.335 1.485h-4.141v-21.16h-.002Zm3.032 8.678h1.37a2.324 2.324 0 0 0 2.04-.759c.392-.669.574-1.44.524-2.214a3.342 3.342 0 0 0-.577-2.135 2.577 2.577 0 0 0-2.103-.72H42.29l-.002 5.828Zm0 9.452H43.6c.495.023.989-.068 1.443-.265.33-.165.605-.423.79-.743.188-.348.3-.733.327-1.128.04-.432.06-.91.06-1.424a9.245 9.245 0 0 0-.09-1.395 2.289 2.289 0 0 0-.372-.993 1.72 1.72 0 0 0-.79-.606 3.616 3.616 0 0 0-1.334-.212h-1.343v6.77l-.003-.004ZM50.597 14.794h3.032v18.128h6.02v3.028h-9.052V14.794ZM66.018 14.794h2.526l4.736 21.163h-3.032l-.895-4.549h-4.147l-.895 4.549H61.28l4.741-21.163h-.002Zm1.283 6.09h-.062l-1.487 7.67h3.032l-1.485-7.67h.002ZM74.831 33.28l5.715-15.636h-5.419v-2.85h8.72v2.403l-5.83 15.908h5.83v2.85h-9.018V33.28h.002ZM85.58 14.794h9.046v2.85h-6.01v6.214h5.237v2.852h-5.237v6.212h6.01v3.028H85.58V14.794ZM96.439 14.794h4.554a6.692 6.692 0 0 1 2.201.327 4.34 4.34 0 0 1 1.731 1.16c.514.55.883 1.22 1.071 1.948.223.99.322 2.003.294 3.017.008.8-.045 1.602-.16 2.395a4.978 4.978 0 0 1-.699 1.855 4.393 4.393 0 0 1-1.672 1.622 5.624 5.624 0 0 1-2.738.586h-1.549v8.262H96.44V14.794h-.001Zm3.032 10.043h1.457c.489.024.978-.067 1.426-.266.317-.16.576-.414.743-.727.168-.349.263-.728.281-1.114a21.965 21.965 0 0 0 0-2.865 3.455 3.455 0 0 0-.266-1.159 1.718 1.718 0 0 0-.7-.772 2.578 2.578 0 0 0-1.369-.288h-1.577v7.192l.005-.001ZM107.633 19.78a5.3 5.3 0 0 1 .448-2.258 4.726 4.726 0 0 1 1.174-1.621 5.12 5.12 0 0 1 1.638-.97 5.433 5.433 0 0 1 1.831-.318c.625 0 1.245.111 1.831.328a5.021 5.021 0 0 1 1.638.97c.504.45.904 1.002 1.174 1.62.309.713.462 1.483.448 2.259v11.18a5.403 5.403 0 0 1-.448 2.275 4.731 4.731 0 0 1-1.174 1.606c-.48.421-1.036.748-1.638.962a5.333 5.333 0 0 1-1.831.328 5.469 5.469 0 0 1-1.831-.328 5.123 5.123 0 0 1-1.638-.962 4.728 4.728 0 0 1-1.174-1.606 5.403 5.403 0 0 1-.448-2.274V19.78Zm3.032 11.18a2.03 2.03 0 0 0 .607 1.621 2.249 2.249 0 0 0 2.883.001 2.006 2.006 0 0 0 .606-1.621V19.78a2.04 2.04 0 0 0-.606-1.621 2.252 2.252 0 0 0-2.876.007 2.003 2.003 0 0 0-.606 1.621v11.173h-.008ZM119.747 14.794h4.492a5.218 5.218 0 0 1 3.955 1.441 5.64 5.64 0 0 1 1.369 4.032v9.898a5.896 5.896 0 0 1-1.443 4.388 5.684 5.684 0 0 1-4.152 1.41h-4.23V14.794H119.747Zm3.037 18.313h1.397a2.266 2.266 0 0 0 1.814-.635 3.075 3.075 0 0 0 .538-2.007V20.26a3.166 3.166 0 0 0-.509-1.934 2.143 2.143 0 0 0-1.843-.683h-1.397v15.464Z" fill="black"/><path d="M17.18 39.998a14.676 14.676 0 0 1-9.624-3.58 14.64 14.64 0 0 1-4.912-9.01 14.792 14.792 0 0 1 1.565-8.953l-.01.009-.007.009a2.28 2.28 0 0 0-.319-2.842l-1.467-1.465a1.717 1.717 0 0 1 1.215-2.934c.457 0 .895.18 1.218.502l.647.647.648.648.473.473a1.503 1.503 0 0 0 1.07.429 1.846 1.846 0 0 0 1.805-1.729 1.49 1.49 0 0 0-.427-1.145L7.722 9.725 3.67 5.675.92 2.935A1.717 1.717 0 0 1 2.137 0c.456 0 .894.18 1.217.503l7.054 7.044 2.958 2.952a1.775 1.775 0 0 0 1.272.526 1.703 1.703 0 0 0 1.21-.495 1.757 1.757 0 0 0-.03-2.475l-.996-.99-3.797-3.794A1.714 1.714 0 0 1 12.238.34a1.72 1.72 0 0 1 1.215.502l14.484 14.464c.023.024.045.05.064.077.014.02.03.04.046.058a14.653 14.653 0 0 1 2.587 15.813 14.676 14.676 0 0 1-5.42 6.368A14.705 14.705 0 0 1 17.19 40l-.01-.002Zm0-25.336a10.68 10.68 0 0 0-6.766 2.42 10.643 10.643 0 0 0-2.638 13.259 10.666 10.666 0 0 0 5.325 4.822 10.685 10.685 0 0 0 7.18.353 10.67 10.67 0 0 0 5.775-4.275 10.645 10.645 0 0 0-1.32-13.454 10.671 10.671 0 0 0-7.555-3.125Z" fill="black"/><path d="M139.663 20.464c.768-.72 1.152-1.632 1.152-2.736 0-1.104-.384-2.016-1.152-2.736-.744-.72-1.68-1.08-2.76-1.08-1.08 0-2.016.36-2.76 1.08-.744.72-1.104 1.632-1.104 2.736 0 1.104.36 2.016 1.104 2.736.744.72 1.68 1.08 2.76 1.08 1.08 0 2.016-.36 2.76-1.08Zm.36-2.736c0 1.824-1.32 3.096-3.12 3.096s-3.096-1.272-3.096-3.096c0-1.848 1.296-3.144 3.096-3.144s3.12 1.296 3.12 3.144Zm-3.72 2.112v-1.608h.576l.96 1.608h.96l-1.056-1.752c.48-.264.72-.696.72-1.272 0-.792-.576-1.368-1.416-1.368h-1.56v4.392h.816Zm0-3.624h.72c.36 0 .624.288.624.648 0 .384-.264.696-.624.696h-.72v-1.344Z" fill="black"/></svg>
