<svg width="150" height="20" viewBox="0 0 150 20" fill="none" xmlns="http://www.w3.org/2000/svg">
    <path d="M59.8633 5.48753C58.2758 3.22085 55.5882 1.92084 52.4591 1.92084C47.0757 1.92084 43.1715 5.65003 43.1715 10.7876C43.1715 15.9251 47.0257 19.5543 52.3299 19.5543C55.6091 19.5543 58.3674 18.1543 59.9299 15.7084V19.1626H62.2675V0H59.8633V5.48753ZM59.8966 10.6917C59.8966 14.5334 56.8091 17.3168 52.5549 17.3168C48.3007 17.3168 45.7007 14.7292 45.7007 10.7251C45.7007 6.72087 48.3799 4.16252 52.5216 4.16252C56.6633 4.16252 59.8966 6.84587 59.8966 10.6917Z" fill="black"/>
    <path d="M98.0975 1.92507C94.5558 1.92507 92.2266 3.16675 90.985 5.72093V2.34591H88.6475V19.1668H91.0475V11.3085C91.0475 6.63343 93.36 4.16258 97.7392 4.16258C101.781 4.16258 103.748 6.15843 103.748 10.271V19.171H106.152V10.0126C106.152 6.3251 104.756 1.92507 98.0975 1.92507Z" fill="black"/>
    <path d="M16.5043 13.1208C15.3001 15.7875 12.8792 17.3167 9.74589 17.3167C5.48336 17.3167 2.50418 14.5917 2.50418 10.6875C2.50418 6.78329 5.50836 4.12494 9.81255 4.12494C12.5792 4.12494 14.8084 5.34578 16.0709 7.48746L18.6709 6.75412C17.0459 3.62077 13.9959 1.88326 9.97089 1.88326C4.00419 1.8916 0 5.44162 0 10.725C0 16.0083 3.95419 19.5584 9.84172 19.5584C14.1626 19.5584 17.4209 17.45 18.8418 13.7833L16.5043 13.125V13.1208Z" fill="black"/>
    <path d="M125.806 13.1208C124.602 15.7875 122.181 17.3167 119.047 17.3167C114.781 17.3167 111.802 14.5917 111.802 10.6875C111.802 6.78329 114.806 4.12494 119.11 4.12494C121.877 4.12494 124.106 5.34578 125.368 7.48746L127.968 6.75412C126.343 3.62077 123.293 1.88326 119.268 1.88326C113.306 1.88326 109.297 5.43328 109.297 10.7166C109.297 16 113.252 19.55 119.139 19.55C123.46 19.55 126.718 17.4417 128.139 13.775L125.802 13.1167L125.806 13.1208Z" fill="black"/>
    <path d="M140.55 1.92507C134.754 1.92507 130.708 5.55843 130.708 10.7585C130.708 15.9585 134.796 19.5585 140.646 19.5585C144.712 19.5585 148 17.7752 149.083 15.0126L146.608 14.3126C145.875 16.1377 143.55 17.3168 140.612 17.3168C136.458 17.3168 133.554 15.0376 133.196 11.5043H150V10.596C150 5.40843 146.2 1.92507 140.55 1.92507ZM133.254 9.32928C133.921 6.17093 136.725 4.13342 140.417 4.13342C144.108 4.13342 147.017 6.17093 147.438 9.32928H133.254Z" fill="black"/>
    <path d="M75.6506 1.92507C69.8547 1.92507 65.8088 5.55843 65.8088 10.7585C65.8088 15.9585 69.8964 19.5585 75.7464 19.5585C79.8131 19.5585 83.1006 17.7752 84.1839 15.0126L81.7089 14.3126C80.9756 16.1377 78.6506 17.3168 75.7131 17.3168C71.5589 17.3168 68.6547 15.0376 68.2964 11.5043H85.1006V10.596C85.1006 5.40843 81.3006 1.92507 75.6506 1.92507ZM68.3547 9.32928C69.0214 6.17093 71.8255 4.13342 75.5172 4.13342C79.2089 4.13342 82.1173 6.17093 82.5381 9.32928H68.3547Z" fill="black"/>
    <path d="M40.0758 19.171C39.88 18.1377 39.7466 16.2918 39.7466 13.8126V8.22511C39.7466 4.10425 36.93 1.92507 31.5966 1.92507C27.0007 1.92507 23.8466 3.59175 22.934 6.5001L22.8507 6.7626L25.3507 7.46677L25.4466 7.1501C26.0007 5.22509 28.3299 4.03342 31.5299 4.03342C35.155 4.03342 37.4091 5.53759 37.4091 7.96261V8.36261C35.3508 8.44177 32.3174 8.69594 30.1716 8.97511C27.0466 9.35845 25.0341 9.95012 23.6424 10.896C22.334 11.7793 21.7257 12.9335 21.7257 14.5251C21.7257 17.6293 24.3382 19.5585 28.5466 19.5585C32.3008 19.5585 35.6716 17.9835 37.4008 15.4418C37.43 16.4835 37.5675 18.3877 37.705 19.171H40.0841H40.0758ZM37.4091 12.1876C37.4091 14.2085 33.7674 17.321 28.9299 17.321C26.1091 17.321 24.2841 16.1585 24.2841 14.3626C24.2841 12.221 26.8549 11.496 31.0008 11.0168C33.3091 10.7418 36.2425 10.5001 37.405 10.4418V12.1876H37.4091Z" fill="black"/>
</svg>
