<svg viewBox="0 0 202 29" fill="none" xmlns="http://www.w3.org/2000/svg">
  <path d="M8.158 27.468C8.58867 27.5187 9.08267 27.5567 9.64 27.582C10.2227 27.6073 10.856 27.62 11.54 27.62C12.4013 27.62 13.25 27.582 14.086 27.506C14.9473 27.4047 15.758 27.2147 16.518 26.936C17.3033 26.632 18.0253 26.214 18.684 25.682C19.368 25.1247 19.976 24.4027 20.508 23.516C21.3187 22.148 21.876 20.7547 22.18 19.336C22.5093 17.892 22.674 16.3213 22.674 14.624C22.674 12.6227 22.484 10.8113 22.104 9.19C21.724 7.54333 21.0907 6.15 20.204 5.01C19.3427 3.84467 18.19 2.94533 16.746 2.312C15.302 1.67867 13.516 1.362 11.388 1.362C10.7547 1.362 10.172 1.37467 9.64 1.4C9.13333 1.42533 8.63933 1.45066 8.158 1.476V27.468ZM0.14 27.468H4.358V1.476H0.14V0.944H7.208C7.56267 0.944 7.91733 0.944 8.272 0.944C8.62667 0.918665 8.98133 0.893331 9.336 0.867998C9.69067 0.867998 10.0453 0.867998 10.4 0.867998C10.7547 0.842665 11.1093 0.829999 11.464 0.829999C12.224 0.829999 12.8953 0.842665 13.478 0.867998C14.086 0.893331 14.6433 0.943998 15.15 1.02C15.682 1.07067 16.176 1.15933 16.632 1.286C17.1133 1.38733 17.62 1.52666 18.152 1.704C19.6973 2.21066 21.0273 2.89467 22.142 3.756C23.282 4.592 24.2067 5.56733 24.916 6.682C25.6507 7.79667 26.1827 9.01267 26.512 10.33C26.8667 11.6473 27.044 13.028 27.044 14.472C27.044 16.144 26.8413 17.6513 26.436 18.994C26.0307 20.3113 25.4733 21.4893 24.764 22.528C24.0547 23.5413 23.2187 24.428 22.256 25.188C21.3187 25.9227 20.3053 26.518 19.216 26.974C18.608 27.2527 18.0253 27.468 17.468 27.62C16.936 27.772 16.3787 27.886 15.796 27.962C15.2387 28.038 14.618 28.0887 13.934 28.114C13.25 28.1393 12.4647 28.152 11.578 28.152C11.198 28.152 10.7927 28.1393 10.362 28.114C9.93133 28.114 9.50067 28.1013 9.07 28.076C8.63933 28.0507 8.20867 28.0253 7.778 28C7.37267 28 6.98 28 6.6 28H0.14V27.468ZM43.3623 18.044C43.413 17.6893 43.4383 17.36 43.4383 17.056C43.4383 16.752 43.4383 16.4353 43.4383 16.106C43.4383 15.2447 43.3497 14.5353 43.1723 13.978C43.0203 13.4207 42.7923 12.9773 42.4883 12.648C42.2097 12.3187 41.855 12.0907 41.4243 11.964C41.019 11.812 40.5757 11.736 40.0943 11.736C39.233 11.736 38.5237 11.9133 37.9663 12.268C37.409 12.5973 36.9657 13.0533 36.6363 13.636C36.307 14.2187 36.0537 14.89 35.8763 15.65C35.7243 16.41 35.623 17.208 35.5723 18.044H43.3623ZM35.5343 18.576C35.5343 18.8293 35.5217 19.0953 35.4963 19.374C35.4963 19.6273 35.4963 19.9567 35.4963 20.362C35.4963 21.198 35.547 22.072 35.6483 22.984C35.7497 23.896 35.965 24.7193 36.2943 25.454C36.649 26.1887 37.1557 26.7967 37.8143 27.278C38.4983 27.7593 39.3977 28 40.5123 28C41.627 28 42.539 27.8353 43.2483 27.506C43.983 27.1767 44.553 26.784 44.9583 26.328C45.389 25.8467 45.7057 25.3653 45.9083 24.884C46.111 24.4027 46.263 24.01 46.3643 23.706L46.9343 23.82C46.8583 24.0987 46.7063 24.504 46.4783 25.036C46.2757 25.5427 45.9337 26.062 45.4523 26.594C44.9963 27.1007 44.363 27.5567 43.5523 27.962C42.767 28.342 41.741 28.532 40.4743 28.532C39.2077 28.532 38.0297 28.3293 36.9403 27.924C35.8763 27.5187 34.9517 26.936 34.1663 26.176C33.381 25.416 32.773 24.5167 32.3423 23.478C31.9117 22.414 31.6963 21.236 31.6963 19.944C31.6963 18.8293 31.9117 17.7527 32.3423 16.714C32.7983 15.65 33.4063 14.7127 34.1663 13.902C34.9517 13.0913 35.8637 12.4453 36.9023 11.964C37.941 11.4573 39.0557 11.204 40.2463 11.204C40.9557 11.204 41.7157 11.3307 42.5263 11.584C43.337 11.8373 44.0843 12.2553 44.7683 12.838C45.4777 13.3953 46.0603 14.1427 46.5163 15.08C46.9977 16.0173 47.2383 17.1827 47.2383 18.576H35.5343ZM50.0123 27.468H52.9383V12.23H50.0123V11.698H56.1303V15.536H56.2063C56.3077 15.156 56.4723 14.7253 56.7003 14.244C56.9283 13.7627 57.245 13.3067 57.6503 12.876C58.0557 12.42 58.537 12.04 59.0943 11.736C59.677 11.432 60.3737 11.28 61.1843 11.28C61.767 11.28 62.2737 11.3813 62.7043 11.584C63.135 11.7613 63.4897 12.002 63.7683 12.306C64.047 12.5847 64.2497 12.914 64.3763 13.294C64.503 13.674 64.5663 14.054 64.5663 14.434C64.5663 15.27 64.3763 15.8273 63.9963 16.106C63.6163 16.3847 63.173 16.524 62.6663 16.524C61.5517 16.524 60.9943 16.1693 60.9943 15.46C60.9943 15.232 61.0197 15.0547 61.0703 14.928C61.121 14.776 61.1717 14.6367 61.2223 14.51C61.2983 14.358 61.3617 14.1933 61.4123 14.016C61.463 13.8387 61.4883 13.5853 61.4883 13.256C61.4883 12.4453 61.045 12.04 60.1583 12.04C59.753 12.04 59.3223 12.192 58.8663 12.496C58.4103 12.8 57.9797 13.2433 57.5743 13.826C57.1943 14.4087 56.865 15.118 56.5863 15.954C56.333 16.7647 56.2063 17.702 56.2063 18.766V27.468H59.5123V28H50.0123V27.468ZM65.2209 27.468H68.1469V12.23H65.2209V11.698H71.3389V15.688H71.4149C71.9469 14.168 72.7069 13.0533 73.6949 12.344C74.7083 11.6347 75.9243 11.28 77.3429 11.28C78.6096 11.28 79.7243 11.5587 80.6869 12.116C81.6749 12.6733 82.3209 13.598 82.6249 14.89H82.7009C82.8783 14.434 83.1189 13.9907 83.4229 13.56C83.7269 13.1293 84.1069 12.7493 84.5629 12.42C85.0189 12.0653 85.5509 11.7867 86.1589 11.584C86.7923 11.3813 87.5016 11.28 88.2869 11.28C91.9856 11.28 93.8349 13.1673 93.8349 16.942V27.468H96.7609V28H87.6409V27.468H90.5669V14.548C90.5669 13.6867 90.3263 13.0153 89.8449 12.534C89.3889 12.0527 88.7556 11.812 87.9449 11.812C87.3116 11.812 86.6783 11.9387 86.0449 12.192C85.4116 12.42 84.8416 12.7747 84.3349 13.256C83.8283 13.7373 83.4103 14.358 83.0809 15.118C82.7769 15.878 82.6249 16.7647 82.6249 17.778V27.468H85.5509V28H76.4309V27.468H79.3569V15.08C79.3569 13.9653 79.1289 13.142 78.6729 12.61C78.2169 12.078 77.6089 11.812 76.8489 11.812C76.3169 11.812 75.7343 11.9513 75.1009 12.23C74.4676 12.4833 73.8723 12.9013 73.3149 13.484C72.7829 14.0413 72.3269 14.776 71.9469 15.688C71.5923 16.6 71.4149 17.7147 71.4149 19.032V27.468H74.3409V28H65.2209V27.468ZM100.375 19.83H100.793C101.072 21.198 101.427 22.3507 101.857 23.288C102.313 24.2253 102.807 24.998 103.339 25.606C103.871 26.214 104.429 26.6827 105.011 27.012C105.594 27.3413 106.177 27.582 106.759 27.734C107.367 27.886 107.937 27.9747 108.469 28C109.027 28.0253 109.546 28.038 110.027 28.038C111.37 28.038 112.472 27.8353 113.333 27.43C114.195 27.0247 114.879 26.518 115.385 25.91C115.892 25.2767 116.247 24.6053 116.449 23.896C116.652 23.1613 116.753 22.49 116.753 21.882C116.753 20.9953 116.589 20.2353 116.259 19.602C115.93 18.9687 115.512 18.4367 115.005 18.006C114.499 17.55 113.941 17.1827 113.333 16.904C112.751 16.6253 112.193 16.41 111.661 16.258L107.291 14.928C105.239 14.2947 103.681 13.4587 102.617 12.42C101.579 11.3813 101.059 9.988 101.059 8.24C101.059 7.1 101.262 6.04867 101.667 5.086C102.073 4.098 102.643 3.24933 103.377 2.54C104.112 1.83067 104.986 1.27333 105.999 0.867998C107.038 0.462666 108.165 0.259999 109.381 0.259999C110.268 0.259999 111.003 0.335999 111.585 0.487999C112.193 0.639998 112.713 0.817331 113.143 1.02C113.574 1.19733 113.954 1.362 114.283 1.514C114.638 1.666 114.993 1.742 115.347 1.742C115.677 1.742 115.892 1.704 115.993 1.628C116.12 1.52667 116.285 1.29867 116.487 0.944H117.019V7.822H116.563C116.411 6.91 116.145 6.036 115.765 5.2C115.411 4.33867 114.942 3.59133 114.359 2.958C113.777 2.29933 113.067 1.78 112.231 1.4C111.421 0.994666 110.471 0.791999 109.381 0.791999C108.773 0.791999 108.102 0.880666 107.367 1.058C106.633 1.21 105.949 1.48867 105.315 1.894C104.682 2.29933 104.15 2.83133 103.719 3.49C103.314 4.14867 103.111 4.98467 103.111 5.998C103.111 6.80866 103.276 7.50533 103.605 8.088C103.935 8.64533 104.353 9.12667 104.859 9.532C105.391 9.912 105.974 10.2413 106.607 10.52C107.266 10.7733 107.925 11.0013 108.583 11.204L113.181 12.648C113.663 12.8 114.271 13.0027 115.005 13.256C115.74 13.5093 116.449 13.8893 117.133 14.396C117.843 14.9027 118.438 15.574 118.919 16.41C119.426 17.246 119.679 18.31 119.679 19.602C119.679 20.7927 119.451 21.9327 118.995 23.022C118.565 24.086 117.931 25.036 117.095 25.872C116.259 26.6827 115.246 27.3413 114.055 27.848C112.865 28.3293 111.522 28.57 110.027 28.57C109.495 28.57 109.027 28.5573 108.621 28.532C108.216 28.532 107.836 28.5067 107.481 28.456C107.127 28.4053 106.772 28.342 106.417 28.266C106.063 28.2153 105.67 28.1267 105.239 28C104.733 27.848 104.188 27.6707 103.605 27.468C103.023 27.2653 102.516 27.164 102.085 27.164C101.705 27.164 101.439 27.24 101.287 27.392C101.161 27.544 101.047 27.7467 100.945 28H100.375V19.83ZM123.517 11.698H126.443V6.796C126.646 6.872 126.836 6.93533 127.013 6.986C127.19 7.03667 127.494 7.062 127.925 7.062C128.305 7.062 128.634 7.024 128.913 6.948C129.192 6.84667 129.458 6.69467 129.711 6.492V11.698H135.107V12.23H129.711V24.656C129.711 25.3653 129.774 25.948 129.901 26.404C130.053 26.8347 130.243 27.1767 130.471 27.43C130.699 27.658 130.94 27.81 131.193 27.886C131.472 27.962 131.738 28 131.991 28C132.878 28 133.587 27.6833 134.119 27.05C134.676 26.3913 135.031 25.644 135.183 24.808L135.715 24.998C135.639 25.3273 135.525 25.6947 135.373 26.1C135.221 26.5053 134.98 26.898 134.651 27.278C134.347 27.6327 133.942 27.924 133.435 28.152C132.928 28.4053 132.295 28.532 131.535 28.532C129.635 28.532 128.305 28.1647 127.545 27.43C126.81 26.6953 126.443 25.6567 126.443 24.314V12.23H123.517V11.698ZM136.551 27.468H139.477V12.23H136.551V11.698H142.669V15.536H142.745C142.847 15.156 143.011 14.7253 143.239 14.244C143.467 13.7627 143.784 13.3067 144.189 12.876C144.595 12.42 145.076 12.04 145.633 11.736C146.216 11.432 146.913 11.28 147.723 11.28C148.306 11.28 148.813 11.3813 149.243 11.584C149.674 11.7613 150.029 12.002 150.307 12.306C150.586 12.5847 150.789 12.914 150.915 13.294C151.042 13.674 151.105 14.054 151.105 14.434C151.105 15.27 150.915 15.8273 150.535 16.106C150.155 16.3847 149.712 16.524 149.205 16.524C148.091 16.524 147.533 16.1693 147.533 15.46C147.533 15.232 147.559 15.0547 147.609 14.928C147.66 14.776 147.711 14.6367 147.761 14.51C147.837 14.358 147.901 14.1933 147.951 14.016C148.002 13.8387 148.027 13.5853 148.027 13.256C148.027 12.4453 147.584 12.04 146.697 12.04C146.292 12.04 145.861 12.192 145.405 12.496C144.949 12.8 144.519 13.2433 144.113 13.826C143.733 14.4087 143.404 15.118 143.125 15.954C142.872 16.7647 142.745 17.702 142.745 18.766V27.468H146.051V28H136.551V27.468ZM164.376 18.044C164.427 17.6893 164.452 17.36 164.452 17.056C164.452 16.752 164.452 16.4353 164.452 16.106C164.452 15.2447 164.363 14.5353 164.186 13.978C164.034 13.4207 163.806 12.9773 163.502 12.648C163.223 12.3187 162.869 12.0907 162.438 11.964C162.033 11.812 161.589 11.736 161.108 11.736C160.247 11.736 159.537 11.9133 158.98 12.268C158.423 12.5973 157.979 13.0533 157.65 13.636C157.321 14.2187 157.067 14.89 156.89 15.65C156.738 16.41 156.637 17.208 156.586 18.044H164.376ZM156.548 18.576C156.548 18.8293 156.535 19.0953 156.51 19.374C156.51 19.6273 156.51 19.9567 156.51 20.362C156.51 21.198 156.561 22.072 156.662 22.984C156.763 23.896 156.979 24.7193 157.308 25.454C157.663 26.1887 158.169 26.7967 158.828 27.278C159.512 27.7593 160.411 28 161.526 28C162.641 28 163.553 27.8353 164.262 27.506C164.997 27.1767 165.567 26.784 165.972 26.328C166.403 25.8467 166.719 25.3653 166.922 24.884C167.125 24.4027 167.277 24.01 167.378 23.706L167.948 23.82C167.872 24.0987 167.72 24.504 167.492 25.036C167.289 25.5427 166.947 26.062 166.466 26.594C166.01 27.1007 165.377 27.5567 164.566 27.962C163.781 28.342 162.755 28.532 161.488 28.532C160.221 28.532 159.043 28.3293 157.954 27.924C156.89 27.5187 155.965 26.936 155.18 26.176C154.395 25.416 153.787 24.5167 153.356 23.478C152.925 22.414 152.71 21.236 152.71 19.944C152.71 18.8293 152.925 17.7527 153.356 16.714C153.812 15.65 154.42 14.7127 155.18 13.902C155.965 13.0913 156.877 12.4453 157.916 11.964C158.955 11.4573 160.069 11.204 161.26 11.204C161.969 11.204 162.729 11.3307 163.54 11.584C164.351 11.8373 165.098 12.2553 165.782 12.838C166.491 13.3953 167.074 14.1427 167.53 15.08C168.011 16.0173 168.252 17.1827 168.252 18.576H156.548ZM183.376 18.044C183.427 17.6893 183.452 17.36 183.452 17.056C183.452 16.752 183.452 16.4353 183.452 16.106C183.452 15.2447 183.363 14.5353 183.186 13.978C183.034 13.4207 182.806 12.9773 182.502 12.648C182.223 12.3187 181.869 12.0907 181.438 11.964C181.033 11.812 180.589 11.736 180.108 11.736C179.247 11.736 178.537 11.9133 177.98 12.268C177.423 12.5973 176.979 13.0533 176.65 13.636C176.321 14.2187 176.067 14.89 175.89 15.65C175.738 16.41 175.637 17.208 175.586 18.044H183.376ZM175.548 18.576C175.548 18.8293 175.535 19.0953 175.51 19.374C175.51 19.6273 175.51 19.9567 175.51 20.362C175.51 21.198 175.561 22.072 175.662 22.984C175.763 23.896 175.979 24.7193 176.308 25.454C176.663 26.1887 177.169 26.7967 177.828 27.278C178.512 27.7593 179.411 28 180.526 28C181.641 28 182.553 27.8353 183.262 27.506C183.997 27.1767 184.567 26.784 184.972 26.328C185.403 25.8467 185.719 25.3653 185.922 24.884C186.125 24.4027 186.277 24.01 186.378 23.706L186.948 23.82C186.872 24.0987 186.72 24.504 186.492 25.036C186.289 25.5427 185.947 26.062 185.466 26.594C185.01 27.1007 184.377 27.5567 183.566 27.962C182.781 28.342 181.755 28.532 180.488 28.532C179.221 28.532 178.043 28.3293 176.954 27.924C175.89 27.5187 174.965 26.936 174.18 26.176C173.395 25.416 172.787 24.5167 172.356 23.478C171.925 22.414 171.71 21.236 171.71 19.944C171.71 18.8293 171.925 17.7527 172.356 16.714C172.812 15.65 173.42 14.7127 174.18 13.902C174.965 13.0913 175.877 12.4453 176.916 11.964C177.955 11.4573 179.069 11.204 180.26 11.204C180.969 11.204 181.729 11.3307 182.54 11.584C183.351 11.8373 184.098 12.2553 184.782 12.838C185.491 13.3953 186.074 14.1427 186.53 15.08C187.011 16.0173 187.252 17.1827 187.252 18.576H175.548ZM189.646 11.698H192.572V6.796C192.775 6.872 192.965 6.93533 193.142 6.986C193.319 7.03667 193.623 7.062 194.054 7.062C194.434 7.062 194.763 7.024 195.042 6.948C195.321 6.84667 195.587 6.69467 195.84 6.492V11.698H201.236V12.23H195.84V24.656C195.84 25.3653 195.903 25.948 196.03 26.404C196.182 26.8347 196.372 27.1767 196.6 27.43C196.828 27.658 197.069 27.81 197.322 27.886C197.601 27.962 197.867 28 198.12 28C199.007 28 199.716 27.6833 200.248 27.05C200.805 26.3913 201.16 25.644 201.312 24.808L201.844 24.998C201.768 25.3273 201.654 25.6947 201.502 26.1C201.35 26.5053 201.109 26.898 200.78 27.278C200.476 27.6327 200.071 27.924 199.564 28.152C199.057 28.4053 198.424 28.532 197.664 28.532C195.764 28.532 194.434 28.1647 193.674 27.43C192.939 26.6953 192.572 25.6567 192.572 24.314V12.23H189.646V11.698Z" fill="white"/>
</svg>
