<svg version="1.2" xmlns="http://www.w3.org/2000/svg" viewBox="0 0 1550 522" width="1550" height="522">
	<title>occitane-svg</title>
	<style>
		.s0 { fill: #ffffff } 
	</style>
	<g id="Layer">
		<path id="Layer" fill-rule="evenodd" class="s0" d="m376.6 64.2c-2.2-2.2-3.7-5.5-6.1-8.1v-0.7c0-1.1-0.7 0-1.4-1.1-0.8-1.1 0.7-2.2 0.7-2.9q-0.3-0.2-0.6-0.4-0.2-0.3-0.4-0.6-0.2-0.2-0.3-0.6-0.1-0.3-0.1-0.6-0.6-0.9-1-1.9-0.5-1-0.9-2-0.4-1-0.6-2.1-0.3-1-0.5-2.1c-0.7-1.5 0-3.7-1.4-4.8-3.7-2.6-15.4 3.3-20.2 6.1q-1.1 0.5-2.3 1.1-1.1 0.6-2.1 1.3-1.1 0.6-2.1 1.4-1 0.8-1.9 1.7-3 1.9-5.7 4.1-2.8 2.2-5.3 4.7-2.5 2.4-4.8 5.1-2.3 2.6-4.4 5.5c-9.2 13.6-19.1 28.6-27.9 41.8q-0.8 1-1.5 2-0.8 1-1.4 2.1-0.7 1.1-1.4 2.1-0.6 1.1-1.2 2.3-0.3 0.9-0.7 1.8-0.4 1-0.8 1.9-0.4 0.9-0.9 1.8-0.4 0.9-0.9 1.8c-0.7 2.2-3 4.4-3 6-1.1 0.4-0.3 1.9-0.3 3.4 0 1.5-1.5 2.6-1.5 3.6q-0.1 0.6-0.2 1.1 0 0.6-0.1 1.1 0 0.6 0 1.1-0.1 0.6 0 1.2c-0.4 1.4-1.5 2.1-2.3 3.6q-0.5 0.6-0.9 1.2-0.3 0.6-0.6 1.2-0.3 0.7-0.5 1.4-0.1 0.7-0.2 1.4-1.2 2.9-2.4 5.9-1.2 3-2.2 6-1.1 3-2 6.1-1 3-1.8 6.1-0.3 1.2-0.6 2.4-0.3 1.3-0.5 2.5-0.2 1.3-0.4 2.5-0.2 1.2-0.3 2.5-1.3 3.2-2.2 6.4-0.9 3.3-1.6 6.6-0.6 3.3-0.9 6.7-0.3 3.4-0.3 6.8 0.1 3 0.6 5.9 0.4 2.9 1.3 5.8 0.9 2.8 2.2 5.5 1.3 2.7 2.9 5.2 2.8 2 5.9 3.7 3.1 1.6 6.4 2.8 3.4 1.2 6.8 1.8 3.4 0.7 7 0.9 4.2 0.3 8.4 0.3 4.2-0.1 8.4-0.6 4.2-0.5 8.4-1.5 4.1-0.9 8.1-2.3c6 3.3 15.8-2.6 21.7-4.8q6.1-2.7 11.9-5.9 5.9-3.3 11.4-7 5.5-3.8 10.7-8 5.2-4.2 10.1-8.8c-5.2 0.7-11.8 4.8-18.2 5.5-3.3-0.4-6-2.3-8.8 0-1.4-4.1-6-4.8-8.1-8.8-1.1-0.8-1.8-3-2.9-4.8q-0.2-0.7-0.5-1.4-0.3-0.6-0.6-1.3-0.3-0.6-0.7-1.2-0.4-0.6-0.8-1.2-0.3-1.1-0.4-2.1-0.2-1.1-0.3-2.1-0.1-1.1-0.1-2.1 0-1.1 0-2.2c2.2-1.4 5.5 2.6 8.9 3q1.9-0.5 3.8-1.1 1.9-0.7 3.7-1.4 1.9-0.8 3.6-1.7 1.8-0.8 3.5-1.9 1.8-0.8 3.6-1.5 1.8-0.8 3.7-1.5 1.8-0.7 3.7-1.3 1.8-0.6 3.7-1.1c11-4.4 22.1-5.5 29.7-8.1 3.7-1.1 6.1-3.3 8.8-3 0-1.1 2.3 0.4 4.8 0.7 8.5-1 16.9-2.2 25.4 4.1q0.6 0.5 1.2 1 0.6 0.6 1.3 1.1 0.6 0.5 1.3 1 0.6 0.5 1.3 0.9c2.5 2.6 5.5 2.6 2.5 8.5-0.7 1.1-1 1.4-1 2.2q-0.8 0.1-1.5 0.2-0.7 0.1-1.4 0.3-0.6 0.2-1.3 0.4-0.7 0.2-1.3 0.6c-1.5-0.4-4.4 1-6.1 1q-0.4 0.3-0.9 0.5-0.4 0.3-0.8 0.6-0.4 0.2-0.8 0.5-0.4 0.3-0.8 0.7c-0.7 0.3-3.3 0-4.4 0.7q-1.7 1.6-3.2 3.4-1.5 1.9-2.7 3.9-1.3 1.9-2.3 4.1-1 2.1-1.7 4.3-0.9 1.2-1.7 2.4-0.7 1.1-1.4 2.4-0.7 1.2-1.3 2.5-0.6 1.3-1.1 2.6-1.9 3.5-3.7 7.1-1.7 3.5-3.3 7.2-1.6 3.6-3.1 7.3-1.5 3.7-2.8 7.4c-2.2 4.8-2.9 8.8-4.7 13.9q-1.4 3.4-2.6 6.9-1.2 3.4-2 6.9-0.9 3.6-1.5 7.2-0.7 3.5-1 7.2-0.2 1.1-0.4 2.2-0.2 1-0.3 2.1-0.2 1.2-0.3 2.3-0.1 1.1-0.1 2.2c-0.4 2.5 1.5 4.4 0 5.5 0 1.1-2.5 2.1-2.5 2.9-11-3.7-15.8-17.2-14.7-33.7q0.5-5.5 1.3-11 0.8-5.5 2-11 1.2-5.4 2.8-10.7 1.5-5.4 3.4-10.6-0.9-0.2-1.8-0.2-1-0.1-1.9 0-0.9 0.1-1.8 0.4-1 0.2-1.8 0.6-2.2 2.2-4.4 4.5-2.2 2.2-4.4 4.4-2.3 2.1-4.6 4.2-2.3 2.1-4.7 4.1c0 1.5 0.7 3.3-0.4 3.7-2.2 1.8-3.3 0.4-4.4 0.4q-0.4 1.2-0.9 2.5-0.6 1.2-1.3 2.4-0.7 1.1-1.5 2.2-0.8 1.1-1.8 2c-3 1.8-7 2.6-9.9 4.4q-1.3 1.3-2.5 2.6-1.2 1.4-2.3 2.7-1.2 1.4-2.3 2.8-1.1 1.4-2.1 2.9c-1.4-0.3 0-2.6-1.4-2.9q-0.8 0.7-1.6 1.4-0.8 0.7-1.7 1.3-0.9 0.6-1.8 1.1-1 0.5-1.9 0.9-1.1 0.4-2.2 0.8-1.1 0.4-2.2 0.7-1.1 0.3-2.2 0.6-1.1 0.3-2.3 0.5-0.5 0.2-1.1 0.4-0.5 0.2-1 0.5-0.5 0.2-1 0.6-0.5 0.3-0.9 0.7-0.5 0.3-0.9 0.5-0.5 0.2-1 0.4-0.6 0.1-1.1 0.2-0.5 0-1.1 0c-3.5 1.5-7.2 2.7-11 3.4-3.9 0.8-7.7 1.1-11.6 1.1-3.9-0.1-7.8-0.6-11.5-1.4-3.8-0.9-7.5-2.2-11-3.8-0.7-0.8-1.5-2.6-3-3.4-1.5-0.7-3.3 0.4-4.4-0.3-1.1-0.8-4.4-3.7-6.6-4.1q-0.8-0.5-1.7-1-0.8-0.5-1.7-0.9-0.9-0.5-1.8-0.9-0.9-0.4-1.8-0.9-0.5-0.8-1.1-1.7-0.5-0.8-1.1-1.6-0.6-0.9-1.2-1.7-0.7-0.8-1.3-1.5c-0.8-0.8-2.2-0.8-3-1.1 0-1.8 0-3.3-1.1-4.1q-1-0.9-2-2-1-1-1.9-2-1-1.1-1.9-2.1-0.9-1.1-1.8-2.2-3.1-5.3-5.6-11-2.5-5.7-4.3-11.6-1.8-5.9-2.9-12-1.1-6.1-1.5-12.3-0.3-4.3-0.4-8.7 0-4.3 0.1-8.6 0.1-4.3 0.5-8.7 0.3-4.3 0.9-8.6 0.1-0.7 0.2-1.5 0-0.7 0-1.5 0-0.7 0-1.5-0.1-0.7-0.2-1.5c1.1-1.8 2.5-2.2 2.5-4.4 0-2.2 0.7-6.6 1.5-9.9q0.5-1.6 1-3.2 0.6-1.6 1-3.2 0.5-1.6 0.9-3.2 0.4-1.6 0.8-3.2 0.1-0.7 0.3-1.3 0.2-0.6 0.4-1.2 0.2-0.6 0.5-1.2 0.3-0.6 0.6-1.1c0-1.5 1.8-3.7 2.2-6 1.9-3 1.1-6.1 3.4-9.6 1.4-5.5 5.1-7.7 7-12q0.1 0.4 0.1 0.8 0 0.4 0 0.8-0.1 0.5-0.2 0.9-0.1 0.4-0.3 0.8c2.6-1.5 2.2-4.8 4.4-6.1q0.4-0.9 0.9-1.9 0.5-0.9 1-1.8 0.6-0.9 1.2-1.7 0.6-0.9 1.3-1.7c0.7 0 0.7-1.4 0.7-2.2q0.3-0.3 0.5-0.7 0.2-0.4 0.4-0.8 0.2-0.5 0.3-0.9 0.1-0.4 0.2-0.9c0-0.7-0.7-2.1 0.4-3.3q1.1-2.2 2.3-4.3 1.1-2.2 2.4-4.3 1.2-2.1 2.5-4.2 1.3-2.1 2.7-4.1 0.9-1.4 1.9-2.7 1-1.3 2-2.6 1-1.4 2.1-2.6 1-1.3 2.1-2.6c2.2-2.2 3.7-4.4 5.1-5.5q0.5-0.8 1.1-1.4 0.6-0.7 1.3-1.3 0.7-0.7 1.5-1.2 0.8-0.5 1.6-0.8 0.2-0.8 0.3-1.5 0.1-0.8 0.2-1.6 0.1-0.7 0.1-1.5 0.1-0.7 0.2-1.5c1.8-1.4 5.4-2.5 6.5-5.1 1.5-0.7 2.3-3.3 3.4-3.7 1.4-3 4.4-3.7 6-5.1 1.6-1.5 2.2-3.3 3.7-4.4 1.5-1.1 2.2-1.5 4-2.2 2.6-1.8 3-3.3 7.4-4.4 0.4-1.1 1.4-1.1 1.8-1.5 2.5-1.4 6-5.1 8.8-6 2.8-0.9 3.7 0.4 6.1 0 5.5-0.7 9.1-4.8 15.4-3.3 1.8 0 1-2.2 2.9-2.2 1.9 0 3.3 3.3 3.7 0.4 3 2.9 7.3 2.6 11.8 3.3 4.4 3 8.8 5.1 13.2 8.4q1.7 1.1 3.2 2.2 1.6 1.2 3.2 2.4 1.5 1.3 2.9 2.6 1.4 1.3 2.8 2.7 3 2.5 5.4 5.5 2.4 3.1 4.2 6.5 1.7 3.5 2.7 7.2 1 3.8 1.3 7.6-0.3 0.7-0.4 1.3-0.1 0.6-0.2 1.3 0 0.6 0 1.3 0.1 0.6 0.2 1.3c-0.7 3.3 1.1 6.5 0.4 9.9-0.4 2.2-6.1 6-9.2 6.5q-1.4-0.7-2.9-1.4-1.4-0.6-3-1.1-1.5-0.4-3-0.7-1.6-0.3-3.2-0.4 0-0.4 0.1-0.8 0.1-0.3 0.3-0.7 0.1-0.3 0.3-0.6 0.2-0.3 0.5-0.6zm-118.3 0.4c0 2.1-2.2 1.4-2.2 2.9 1.5 0.7 4-2.9 2.2-2.9zm6.1-6.1q0.7-0.6 1.3-1.4 0.6-0.8 1.1-1.6 0.5-0.8 0.9-1.7 0.4-0.9 0.7-1.8c-3.3 4.4-8.1 6.5-8.5 12.4q0.7-0.6 1.3-1.3 0.6-0.7 1.2-1.4 0.5-0.7 1.1-1.5 0.5-0.7 1-1.5zm268.6 107.3q0.8 0.5 1.6 1 0.8 0.5 1.6 1.1 0.7 0.5 1.5 1.1 0.7 0.6 1.4 1.2 0.5 0 1 0.1 0.5 0 1 0.2 0.5 0.2 0.9 0.5 0.4 0.3 0.8 0.7c0.7 0 1 1.4 1 1.4 3 1.5 3 3 5.2 6q0.4 0.4 0.9 0.8 0.4 0.3 0.9 0.6 0.4 0.4 0.9 0.7 0.5 0.3 1 0.5c-1.1 5.2 2.2 6.1 4.4 7.8q-0.7 1.3-1.5 2.5-0.8 1.3-1.6 2.6-0.8 1.2-1.7 2.4-0.9 1.2-1.8 2.4-0.6 2.3-1.3 4.7-0.7 2.4-1.4 4.7-0.8 2.3-1.6 4.7-0.8 2.3-1.7 4.6c0 0.3-1.9 1.8-2.3 2.1q-0.6 2-1.1 3.9-0.5 2-0.9 4-0.4 1.9-0.8 3.9-0.3 2-0.5 4.1-1.3 4.2-2.2 8.5-0.9 4.3-1.4 8.7-0.6 4.4-0.7 8.8-0.1 4.4 0.3 8.8 0.1 1.7 0.5 3.4 0.3 1.6 0.8 3.3 0.5 1.6 1.2 3.1 0.7 1.6 1.5 3.1l0.4 1.1c1.8 1.4 4 1.1 5.1 1.8 1.8 1.8-0.4 1.8 1.4 4q1.9-0.1 3.8-0.2 1.9-0.2 3.8-0.4 1.9-0.2 3.7-0.5 1.9-0.3 3.8-0.7-1.3 1.3-2.8 2.5-1.5 1.1-3.1 2-1.7 0.9-3.4 1.5-1.8 0.6-3.6 1c-13.6 2.2-27.5-3.3-32.7-11.8q-0.5-1.2-1.1-2.4-0.5-1.2-1-2.4-0.5-1.3-1-2.5-0.5-1.3-0.9-2.6-0.3-0.8-0.6-1.6-0.4-0.8-0.6-1.6-0.3-0.8-0.6-1.7-0.2-0.8-0.4-1.6-0.6-2.5-1-5-0.4-2.6-0.6-5.1-0.2-2.6-0.2-5.1-0.1-2.6 0.1-5.1 0.1-8.5 0.9-17 0.9-8.5 2.7-16.9 1.7-8.3 4.2-16.5 2.5-8.1 5.8-16c-1.1-4-5.2-4-8.1-6-3.7 0.3-4.1-4.4-6.6-2.6-5.5 7.4-3.3 5.2-8.8 11.8-1.1 1.5-7.8 5.5-8.1 6-1.8 5.5-5.2 5.5-8.8 9.2q-1.5 1.5-3.1 2.8-1.6 1.3-3.2 2.6-1.7 1.2-3.4 2.3-1.8 1.2-3.6 2.2c-9.1 0.4-14.6-1.1-14.6-3.7q2-1.5 4-3.1 2-1.5 3.9-3.2 1.9-1.6 3.8-3.4 1.9-1.7 3.7-3.5c5.5-6 5.5-6 9.5-10.6q1.2-1.1 2.3-2.3 1.2-1.1 2.3-2.3 1.1-1.2 2.2-2.4 1-1.3 2-2.5 0.9-1.2 1.7-2.3 0.8-1.2 1.5-2.4 0.8-1.2 1.5-2.4 0.7-1.2 1.4-2.5-0.6-0.6-1.1-1.2-0.6-0.6-1.2-1.1-0.6-0.6-1.2-1.1-0.7-0.5-1.3-1c-2.5-3.7-0.4 0.4-2.2-5.5 0-0.3-2.2-2.6-2.2-2.9q-0.1-3.2 0.1-6.3 0.2-3.1 0.8-6.2 0.5-3.1 1.3-6.1 0.8-3 1.9-6 0.4-1.3 0.8-2.6 0.4-1.3 0.9-2.6 0.5-1.3 1.1-2.6 0.6-1.2 1.2-2.4c0.4-0.4 2.2-0.4 2.2-0.8v-2.2c0-0.4 2.2 0 2.2 0 0.3-1.1-0.4-1.8 0-1.8 0.3 0 1.8-1.1 1.8-1.5q0.6-1.2 1.4-2.4 0.7-1.2 1.6-2.3 0.9-1.1 1.9-2.2 1-1 2.1-1.9 1.5-1.7 3.1-3.4 1.6-1.7 3.2-3.3 1.7-1.6 3.4-3.1 1.7-1.6 3.5-3c1.1-0.7 3-0.4 4.4-2.3 0.4 0 1.1-0.7 1.8 0.8 4.5 4.4 10.3 6.5 14 11 0 1 0.4 2.2 0.7 2.2q0.3 5.1 0 10.2-0.3 5.1-1.2 10.2-0.9 5-2.4 9.9-1.5 4.9-3.6 9.6-1.2 2.8-2.5 5.6-1.3 2.9-2.7 5.6-1.4 2.8-3 5.5-1.5 2.7-3.1 5.3c2.6 4.6 8.8 3.2 12.8 5zm-26-18q0-0.1 0-0.2 0 0.1 0 0.1zm11.7-24.3q0.5-0.6 0.9-1.3 0.3-0.7 0.5-1.5 0.2-0.8 0.2-1.6 0-0.8-0.2-1.6c-0.3 1.5-2.2 1.1-2.9 1.8-1.8 10.5-12.7 16.4-10.3 28.3 3.7-9.1 8.8-16.5 11.8-24.1zm232.4 110.9c19.8-17.6 37.4-38.5 63.5-52.9 2.6-0.7 1.8-2.1 4.8-2.9q0.8-0.8 1.7-1.4 1-0.6 2-1.1 1-0.4 2.1-0.7 1.1-0.3 2.2-0.4 1.4-0.1 2.8 0 1.3 0.1 2.7 0.3 1.4 0.1 2.8 0.4 1.3 0.3 2.7 0.7c0.7 0 1 1.1 4 2.2 3 2.6 7.4 4 6.6 11-0.7 4.7-3.7 9.5-5.1 15q-0.6 2-1 4-0.4 2-0.6 4-0.2 2-0.1 4.1 0 2 0.2 4.1c0 2.9-1.4 4-0.7 7 0.7 1.4 2.2 3.3 4 6q3.6-0.3 7.1-1.1 3.4-0.7 6.8-1.9 3.3-1.2 6.5-2.9 3.2-1.6 6.1-3.6 1.4-1.1 2.8-2.2 1.4-1 2.8-2 1.4-1 2.9-2 1.4-1 2.9-1.9c18.1-13.2 24.1-18.1 28.3-20.2 6-4.4 11.3-6 12.5-4.4 2.2 3-2.3 6.6-2.6 7.7-0.4 1.2-3 2.3-3.7 3.7q-0.7 0.9-1.4 1.7-0.7 0.8-1.5 1.5-0.7 0.8-1.5 1.5-0.8 0.7-1.7 1.4c-4 2.9-7 7-10.6 9.9q-0.6 1.2-1.5 2.4-0.8 1.1-1.9 2.1-1 1-2.2 1.8-1.2 0.8-2.5 1.4-2.9 2.6-6.2 5-3.2 2.3-6.7 4.2-3.5 2-7.1 3.5-3.7 1.5-7.5 2.7-1.6 0.5-3.2 0.9-1.6 0.4-3.2 0.7-1.6 0.3-3.2 0.6-1.6 0.2-3.3 0.4c-2.2 0-4.4-0.8-7.4-0.8h-4.4c-2.6 0-4-2.9-6.5-3.3-1.5-0.7-4.5-0.7-5.2-1.8-2.2-1.4-6-4.8-7.7-6q-1.3-2.2-2.3-4.6-1-2.3-1.6-4.8-0.6-2.4-0.8-5-0.2-2.5-0.1-5.1 0-1.6 0.1-3.3 0-1.7 0.2-3.3 0.2-1.7 0.5-3.3 0.3-1.7 0.7-3.3c-1.8-0.3-1.1 1.8-3 3.3-0.3 1.9 1.8 3.7 0 4.1q-2.6 4.2-5.6 8.2-3 4.1-6.3 7.8-3.4 3.7-7 7.2-3.6 3.4-7.5 6.5c-0.8 1.5-1.1 2.6-2.6 3.4-0.4 0.3-0.4 1.4-0.8 2.6q-0.3-0.1-0.6 0-0.3 0-0.5 0.1-0.3 0.1-0.6 0.2-0.3 0.2-0.5 0.4-1.4 1.1-2.8 2.2-1.5 1.2-2.8 2.4-1.4 1.2-2.7 2.4-1.4 1.2-2.7 2.5c-1.1 0.7-1.1 1.5-1.4 1.8q-0.3 0.1-0.6 0.2-0.3 0-0.5 0.1-0.3 0.1-0.6 0.2-0.2 0.1-0.5 0.2c-1.8 2.3-1.8 4.8-4.1 7.8q-0.6 0.3-1.4 0.6-0.7 0.3-1.5 0.5-0.7 0.1-1.5 0.2-0.8 0.1-1.6 0.1-0.9 0.5-1.8 0.8-1 0.3-1.9 0.5-1 0.2-2 0.2-1 0.1-2 0h-0.7q-2.4 0.1-4.8 0-2.3 0-4.7-0.3-2.4-0.3-4.7-0.8-2.3-0.4-4.6-1.1c-0.7 0-3.3-1.8-3.6-1.8-5.5-1.1-5.5 1.8-9.6-3q-2-3.5-3.5-7.3-1.5-3.8-2.4-7.7-0.9-4-1.2-8.1-0.3-4 0.1-8.1c2.2-11.7 4.1-24.1 6-34.1 0.4-2.9 0.4-6 0.8-7.3 0.3-1.4 3.7-2.6 4-5.5 0.4-1.5 0.4-4.8 1.5-6.1 1.1-4 2.5-7.7 4.7-14.3 2.3-6.5-0.3-4.4 1.1-12 1.1-3.7 2.3-12.9-1.1-14.3q-1.7 0.1-3.4 0.3-1.7 0.1-3.4 0.4-1.7 0.2-3.4 0.5-1.7 0.2-3.4 0.6-2.5 0.7-5 1.4-2.6 0.7-5.2 1.3-2.6 0.6-5.1 1.1-2.6 0.5-5.2 0.9-0.3 0.4-0.6 0.8-0.3 0.3-0.7 0.5-0.4 0.3-0.8 0.4-0.4 0.1-0.9 0.2-1.5 0-3 0.2-1.4 0.2-2.9 0.5-1.4 0.4-2.8 1-1.4 0.5-2.7 1.2c-4 2.2-12 5.5-16.5 7.4q1.6 3 2.7 6.2 1.1 3.3 1.7 6.6 0.6 3.4 0.6 6.8 0 3.4-0.6 6.8-0.5 3-1.3 6-0.7 3-1.7 5.9-1 2.9-2.1 5.7-1.2 2.8-2.6 5.5-0.1 1-0.3 2.1-0.2 1-0.5 2-0.4 0.9-0.8 1.9-0.5 0.9-1 1.7-0.6 0.6-1.2 1.1-0.6 0.6-1.2 1.2-0.5 0.6-1 1.2-0.5 0.7-1 1.3c-1.1 2.2-1.5 4.8-2.3 6.6-1.8 2.6-6 5.1-8.4 8.8q-1.2 1.1-2.2 2.2-1.1 1.1-2.2 2.2-1.1 1.2-2.1 2.4-1 1.2-2 2.4-1.2 1.3-2.7 2.4-1.4 1.1-3 2-1.5 0.9-3.2 1.7-1.7 0.7-3.4 1.2-2.9 1.6-6.1 2.6-3.1 1.1-6.4 1.6-3.3 0.6-6.6 0.5-3.3-0.1-6.6-0.7c-3.3-0.3-6.7-3.7-9.9-4.4-2.5-0.9-4.8-2.1-6.9-3.8-2.1-1.6-3.9-3.5-5.4-5.7-1.4-2.2-2.5-4.7-3.1-7.2-0.7-2.6-0.9-5.2-0.7-7.8q-0.1-2.3 0-4.5 0-2.2 0.3-4.4 0.2-2.2 0.6-4.4 0.3-2.2 0.9-4.4c0.3-1.4 0.3-2.9 0.7-4 0.4-1.1 0.7-2.2 3.7-4.1 0.3-0.7 0-2.5 0.3-3.6 0.4-1.1 2.3-3.7 3-5.5 1.8-4.4 6-8.8 8.1-13.6q1.7-2.6 3.7-5.1 2-2.4 4.2-4.7 2.1-2.3 4.5-4.3 2.3-2.1 4.9-4 0.5-0.7 1.1-1.3 0.6-0.6 1.2-1.1 0.7-0.6 1.4-1.1 0.7-0.5 1.4-0.9 0.6 0.4 1.2 0.8 0.6 0.4 1.2 0.8 0.6 0.4 1.2 0.8 0.6 0.5 1.2 0.9c2.5 2.2 6 2.5 7.7 4.8q1.2 0.1 2.3 0.4 1.1 0.3 2.2 0.6 1.2 0.4 2.2 0.9 1.1 0.5 2.1 1c-1.4 3.3-5.5 4.1-9.5 6.6-1.1 1.8-3 5.1-4.4 7.4q-2.4 2.1-4.5 4.5-2.1 2.4-4 5-1.8 2.6-3.4 5.3-1.5 2.8-2.8 5.7-1.3 2.2-2.3 4.6-1 2.3-1.7 4.8-0.7 2.5-1.1 5-0.4 2.5-0.4 5.1-0.4 2.4-0.5 4.9-0.1 2.5 0 5 0.1 2.5 0.5 5 0.3 2.4 0.9 4.9 0.9-0.1 1.8-0.3 0.9-0.2 1.8-0.6 0.8-0.4 1.6-0.9 0.7-0.5 1.4-1.2 3.3-2.9 6.5-6 3.3-3.1 6.3-6.3 3.1-3.2 6-6.6 3-3.3 5.8-6.8 0.3-0.7 0.8-1.3 0.4-0.7 1-1.3 0.5-0.6 1-1.1 0.6-0.6 1.2-1.1c1.1-2.2 1.1-6 3-7q0.5-0.3 1.1-0.7 0.6-0.3 1.1-0.7 0.6-0.3 1.1-0.7 0.5-0.4 1.1-0.8 0.9-1 1.6-2 0.7-1.1 1.3-2.3 0.6-1.1 0.9-2.4 0.4-1.2 0.6-2.5 0.7-1.4 1.2-2.9 0.5-1.4 0.9-3 0.4-1.5 0.6-3 0.2-1.6 0.2-3.2c-0.7-3.3-3.6-6-2.9-8.8q-1.1-0.8-2.3-1.4-1.3-0.7-2.6-1.1-1.3-0.4-2.6-0.6-1.4-0.2-2.8-0.2c-0.7 0-0.7-2.2-1.4-2.6-1.1-1.8-3.7-2.9-4.1-6 13.2-4.4 22.4-15.4 35.6-19.8q6.4-2.9 13.1-5 6.6-2.1 13.5-3.3 6.9-1.2 13.9-1.5 6.9-0.3 13.9 0.3 3.7 0.4 7.3 1.3 3.6 1 7 2.5 3.4 1.5 6.6 3.5 3.1 2 5.9 4.4 0.4 0.3 0.7 0.7 0.4 0.4 0.7 0.8 0.2 0.4 0.4 0.9 0.2 0.5 0.4 0.9c0.3 1.1 2.6 1.9 2.6 2.2q0.1 0.4 0.1 0.7 0.1 0.4 0.2 0.8 0 0.4 0 0.7 0 0.4 0 0.8c0.4 1.1 1.5 1.4 1.9 1.8 0.7 2.2 0 5.1 0.7 6.6 1.1 2.6 3.3 1.4 3.3 4.7 0 1.8-0.4 3.3-0.4 5.5 0.4 3.3 3.7 5.5 4.4 9.9q-0.2 1.8-0.5 3.7-0.3 1.8-0.7 3.6-0.4 1.8-0.9 3.5-0.5 1.8-1.2 3.5 0 1.3-0.2 2.6-0.2 1.3-0.5 2.6-0.3 1.3-0.6 2.6-0.4 1.2-0.9 2.5c-1.8 5.1-3 10.6-4.8 15-0.3 1.4 0 1.8-0.3 2.2-1.5 1.8-1.9 1.1-1.9 2.6q-0.1 0.8-0.2 1.6 0 0.8 0 1.7 0 0.8 0 1.6 0.1 0.8 0.2 1.6-0.5 2-1.1 4-0.5 2.1-0.9 4.1-0.5 2-0.9 4-0.4 2.1-0.7 4.1 0.9 0 1.8-0.2 0.8-0.2 1.7-0.6 0.8-0.4 1.5-1 0.7-0.5 1.3-1.2z"/>
		<path id="Layer" fill-rule="evenodd" class="s0" d="m1079 229.7c-5.1 1.8-14 7.3-17.3 6.6q-2.2 1.1-4.5 2-2.3 1-4.6 1.8-2.4 0.9-4.8 1.5-2.4 0.7-4.8 1.2c-6.6 2.6-3.3 1.8-8.8 3.7l-6.1 2.2q-0.9 0.3-1.7 0.6-0.9 0.3-1.8 0.6-0.9 0.4-1.7 0.7-0.9 0.4-1.8 0.7-0.8 0.2-1.7 0.4-0.8 0.2-1.6 0.4-0.9 0.3-1.7 0.6-0.8 0.4-1.5 0.7c-8.5 4.5-5.2-1.8-12.9 2.3q-1.6 0.9-3.2 1.7-1.7 0.8-3.4 1.5-1.7 0.6-3.4 1.1-1.8 0.5-3.6 0.8-2.8 1-5.7 1.8-2.9 0.8-5.9 1.3-2.9 0.6-5.9 0.9-3 0.3-6 0.4-1.6 0.1-3.3 0-1.6-0.2-3.2-0.4-1.7-0.3-3.2-0.8-1.6-0.4-3.2-1c-2.9-2.6-4-6.1-9.5-7q-0.4 0.4-0.8 1-0.4 0.5-0.8 1-0.3 0.6-0.5 1.2-0.3 0.6-0.5 1.2-0.5 0.7-1.1 1.3-0.6 0.6-1.3 1.1-0.7 0.5-1.5 0.9-0.8 0.4-1.6 0.7c0 6.6-4.8 7-3.3 13.2q-1.7 2.2-3.1 4.6-1.3 2.4-2.4 5-1.1 2.5-1.8 5.2-0.8 2.7-1.2 5.4c-2.6 6.6-5.5 14.3-8.1 22-0.7-12 8.1-24.1 8.1-35.2 1.1-1.8 2.3-5.5 3.4-8.1-1.5-1.8-2.6 3.3-3.4 4q-0.4 0.7-0.7 1.5-0.3 0.7-0.6 1.5-0.3 0.7-0.5 1.5-0.2 0.8-0.4 1.6-1.3 2.4-2.4 4.8-1.2 2.5-2.1 5-1 2.5-1.8 5.1-0.8 2.6-1.4 5.2c-0.4 1.8-0.8 4.1-0.8 4.1q-0.6 1.1-1.2 2.3-0.5 1.1-1 2.3-0.5 1.2-1 2.4-0.4 1.3-0.8 2.5-0.1 0.9-0.2 1.8-0.2 0.9-0.4 1.8-0.2 0.9-0.5 1.7-0.3 0.9-0.7 1.7c-0.4 3-0.4 7.7-0.7 11q-0.3 0.8-0.6 1.7-0.3 0.8-0.6 1.6-0.3 0.9-0.6 1.7-0.4 0.8-0.8 1.6c-2.2 16.9-1.8 32.3-2.6 45.8 0.8 0 0.8 1.8 0.8 2.2 0 0.4 0.7-0.4 0.7-0.7 0.7-1.8 1.4-1.1 1.1 0.3-0.4 1.5 0 3-1.5 2.6q0.5 1.9 1 3.8 0.5 1.8 0.9 3.7 0.4 1.9 0.8 3.8 0.3 1.9 0.6 3.8 0.5 1.3 0.9 2.6 0.4 1.3 0.7 2.6 0.3 1.3 0.5 2.7 0.3 1.3 0.5 2.7c-8.8 4.8-13.6-0.4-17.3-9.9q-0.8-1.7-1.4-3.4-0.7-1.8-1.1-3.6-0.5-1.8-0.8-3.6-0.3-1.9-0.4-3.7c-2.9-8.5-2.5-22-2.9-34.1q0.4-12.2 1.6-24.4 1.2-12.1 3.1-24.1 1.9-12.1 4.6-24 2.7-11.9 6.1-23.6c5.1-29.4 15-55.8 24.1-83.3q2.1-5.1 3.9-10.3 1.7-5.2 3.2-10.5 1.5-5.3 2.7-10.7 1.1-5.3 2-10.8-0.1-0.1-0.1-0.2-0.1-0.1-0.1-0.3-0.1-0.1-0.1-0.3 0-0.1-0.1-0.2 0-2.7-0.2-5.3-0.2-2.6-0.6-5.2-0.4-2.5-1-5.1-0.7-2.5-1.5-5 2.5-0.8 5.2-1 2.6-0.1 5.2 0.4 2.6 0.6 5 1.7 2.4 1.2 4.4 2.9c-1-1 11.3 3.9 10.2 6.6 0.9-1.2 1.7 0.1 3.8 0.8-0.8 2.6 1.4 2.9 1.8 8.1 0.7 1.4 2.9-1.8 3.3 1.1 0.4 2.9 3.3 2.2 3.7 4.7q0.2 2.2 0.3 4.3 0.1 2.2 0 4.4 0 2.1-0.2 4.3-0.2 2.1-0.5 4.3c12.1-4.1 32.7-11.8 52.6-9.6q2 0.4 4 0.9 2 0.6 4 1.3 1.9 0.8 3.8 1.8 1.8 0.9 3.6 2.1c2.2 0.7 2.6 2.5 3.6 2.5l8.1 4.8c0.4 0.3 0.4 1.4 0.8 2.6 1.4 0.3 3.3 4.7 4.4 8.1q0.9 4.5 0.7 9-0.1 4.6-1.2 9-1.2 4.4-3.3 8.5-2.1 4.1-5 7.6c3.6-0.4-7.4 12.5-3 12 9.5-1.1 54.3-20.1 70.5-33.3 0 0 4.8-3.7 6.1-2.3q-0.3 2-0.8 4-0.4 1.9-1 3.9-0.5 1.9-1.2 3.8-0.7 1.9-1.4 3.7c-7.8 9.2-4.5 4.8-7.1 7.4-2.5 2.6-9.6 7.6-11.9 9.5-2.3 1.8-20.1 10.6-20.1 10.6zm-118.4-99.9q-0.1 0.2-0.3 0.4 0.2-0.2 0.3-0.4zm72.5 47.8c-12.9 0-26.5 6-37.8 10.3q-1 0.6-2 1.2-1 0.6-2.1 1.1-1 0.5-2.1 0.9-1.1 0.5-2.3 0.8l-0.7 1.1-3.3 1.1q-1.2 1.1-2.5 2.2-1.2 1.1-2.5 2.2-1.3 1.1-2.6 2.1-1.3 1-2.7 1.9c-4.4 2.3-6.6 3.3-8.1 6.1-0.3 0.7-1.4 0.7-1.4 1v2.6q-0.4 0.3-0.7 0.6-0.4 0.3-0.8 0.6-0.3 0.3-0.7 0.5-0.4 0.3-0.8 0.6c-2.2 4.7-2.9 12.5-6.6 15.4 6.1-0.8 11-5.2 15.8-6.1 2.2-0.7 6-0.7 6.6-1.8 2.2-1.1 2.6-2.6 4.4-4.4 0.4 0 1.8 0.7 2.2 0 1.5-0.4 3.7-3.3 6.1-3.3q2.1-1.6 4.3-3 2.2-1.4 4.5-2.8 2.2-1.3 4.6-2.5 2.3-1.2 4.7-2.3 2.1-0.5 4.1-1.3 2-0.8 3.9-1.9 1.8-1 3.5-2.4 1.7-1.3 3.2-2.9 1.3-0.9 2.5-1.9 1.2-1 2.3-2.1 1.1-1.1 2.1-2.3 1-1.2 1.9-2.5c0.5-1.5 4.1-4.8 3-8.8z"/>
		<path id="Layer" fill-rule="evenodd" class="s0" d="m1260 201.1q-0.5 1.1-1.2 2.2-0.6 1.1-1.3 2.2-0.7 1-1.4 2-0.8 1-1.6 2c-0.7 0.7-4.7 3-4.7 4.1-1.5 0.3-5.2 4.7-6.1 5.1-0.9 0.4-6 4-7.3 5.1-5.2 2.2-4.8 4.4-9.6 7.7q-1.5 0.5-2.9 1-1.4 0.5-2.8 1.2-1.4 0.6-2.7 1.4-1.3 0.7-2.6 1.6c-3.3 2.2-6.6 1.1-8.8 4.7-3-0.3-6 1.9-10.6 3q-1.1 0.4-2.2 0.7-1.1 0.3-2.2 0.4-1.1 0.2-2.2 0.3-1.1 0.1-2.2 0-2 0.9-4.1 1.6-2.1 0.7-4.2 1.2-2.1 0.5-4.3 0.7-2.2 0.2-4.3 0.2-1.5 0.3-2.9 0.4-1.4 0.2-2.9 0.2-1.4 0-2.8-0.2-1.5-0.1-2.9-0.4-0.5-0.1-1-0.3-0.5-0.1-1-0.2-0.5-0.1-1-0.1-0.5-0.1-1-0.1c-4.4-1.8-9.2-1.4-13.2-3-1.1-0.3-12.1-5.1-13.3-5.4-5.1-1.9-7.3-12.1-11.7-14.7-1.1-0.4-2.6 0-3.4-0.4-0.7-0.3-2.1-3.7-2.6-4.4-1-4.4 2.6-8.1 1.1-10.6 1.1-0.4 2.3-0.4 3-1.8-6-4.8 3-20.2 4.4-24.6 0.4-2.9 0.4-4.7 0.7-6 0.4-1.3 3.4-2.6 4.1-3.7q0.1-0.7 0.4-1.5 0.2-0.7 0.5-1.4 0.3-0.7 0.7-1.3 0.4-0.7 0.9-1.3 1.4-2.2 2.9-4.3 1.5-2 3.2-4 1.7-2 3.4-3.9 1.8-1.8 3.7-3.6 1-1.1 2-2.2 1-1 2.1-2 1-1 2.1-2 1.1-1 2.3-1.9 1.2-0.5 2.4-1.1 1.2-0.6 2.4-1.3 1.2-0.6 2.2-1.4 1.1-0.8 2.2-1.7c7.3-6 16.1-4 23.1-2.5 2.2 0.4 2.6 3.3 4 3.7 1.5 0.3 1.5-0.4 3-0.4 6 1.8 16.9 8.5 18.1 12.5 0.4 1.1 1.8 2.2 2.2 3 1.8 7-1.8 9.1-2.5 12.5-3.7 4.4-7 6-9.6 9.5 0 1.1-4 3.3-4.4 4.8-3.7 3.3-9.5 6-13.9 9.5q-1.2 0.9-2.4 1.8-1.2 0.8-2.5 1.6-1.2 0.9-2.5 1.6-1.3 0.8-2.5 1.6c-1.1 0.7-3.7 1.4-4.5 2.2-0.7 0.8-4 4.4-7.7 6-1.1 1.1-2.9 0-3.3 1.1-2.6 1.1-4.8 4.4-8.1 4.1-1.8 3.7-4.4 18.1 8.1 19.8q1 0.1 2 0.4 1 0.2 1.9 0.5 1 0.2 1.9 0.6 1 0.3 1.9 0.7 3.4-0.1 6.7-0.3 3.3-0.3 6.6-0.7 3.3-0.4 6.6-1 3.3-0.6 6.6-1.3 6.7-1.7 13.2-4 6.5-2.3 12.9-5.1 6.3-2.8 12.3-6.2 6.1-3.3 11.9-7.1 0.4-0.5 1-0.8 0.5-0.4 1-0.8 0.6-0.3 1.2-0.5 0.6-0.3 1.2-0.5c4.4-2.2 16.9-11.3 17.3-17.3 4.1 0.3 6.3 8 1.5 12.8zm-83.3-27.2c3-2.2 7-5.5 7.7-8.1q0.2-0.6 0.2-1.2 0.1-0.6 0.1-1.2 0-0.6-0.1-1.2 0-0.6-0.2-1.1c-2.2-1.1-2.5 0-2.5 0-11.8 6-22.1 18.7-30.2 29.7 0 1.5 1.8 0.7 1.8 0.7 7.8-4.4 15.1-12.1 23.2-17.6z"/>
	</g>
	<path id="Layer" fill-rule="evenodd" class="s0" d="m53.9 473.1c0 13 0.5 22.3 4.4 26.7 3.9 4.4 7.3 5.8 28 5.8 28.8 0 33-1.4 45-28.1q1-0.5 2.1-0.6 1.1-0.1 2.1 0.1 1.1 0.2 2.1 0.7 0.9 0.6 1.7 1.4-1 4.8-2.2 9.5-1.1 4.8-2.5 9.5-1.4 4.7-2.9 9.4-1.6 4.6-3.3 9.2c-11-0.5-33.3-0.8-62.4-0.8h-26.9c-13.2 0-26.2 0-37.1 0.8-2.1-1-2.9-6-0.6-7.5l7.8-1.3c12.1-1.6 14.6-2.4 14.6-29.4v-96.5c0-27-2.4-27.8-14.6-29.6l-7.2-1c-2-1.4-2-6.5 0.5-7.4 13 0.5 24.7 0.7 36.6 0.7 12 0 23.1 0 34.6-0.7q0.8 0.6 1.3 1.6 0.5 0.9 0.6 2 0.1 1.1-0.3 2.1-0.4 1-1.1 1.8l-5.7 1c-12.1 1.8-14.6 2.6-14.6 29.6zm102.1-111.8q0 0 0-0.1 0-0.1 0-0.2zm-35.5 38.3q-0.8-0.6-1.3-1.4-0.5-0.8-0.7-1.7-0.3-0.9-0.2-1.8 0-1 0.3-1.9c11.2-4.6 21.1-12 21.1-23.6-0.2-1.7-0.7-3.4-1.4-5-0.8-1.6-1.8-3-3.1-4.2-1.3-1.3-2.8-2.2-4.4-2.9-1.7-0.7-3.4-1.1-5.2-1.1q-1.7-0.2-3.2-1-1.5-0.8-2.6-2.1-1.1-1.3-1.7-3-0.5-1.6-0.5-3.3c0-4.4 3.2-12.1 14.8-12.1 12.7 0 23.5 12.4 23.6 26.6-0.1 19.6-17.7 34.1-35.5 38.5zm63.4 11.5c0-64.9 48.7-114.7 115.6-114.7 75 0 112.6 54.3 112.6 111.3 0.4 14.9-2.3 29.7-7.8 43.6-5.5 13.9-13.8 26.5-24.3 37.1-10.5 10.6-23.1 18.9-36.9 24.5-13.8 5.7-28.7 8.4-43.6 8.2-72 0-115.6-51.6-115.6-110zm195.7 6.8c0-53.5-23.6-111.3-85.7-111.3-33.7 0-77.6 23.1-77.6 94.1 0 48.3 23.4 110.3 87.4 110.3 38.9 0 75.9-29.2 75.9-93.1zm218.3-29.7q-0.9 0.8-1.9 1.2-1.1 0.5-2.2 0.5-1.1 0.1-2.2-0.2-1.1-0.3-2.1-1c-4.4-16.3-16.1-37.9-50.3-37.9-33 0-66.4 23.4-66.4 76.6 0 55.3 34.5 82.3 68 82.3 33.5 0 47-21.8 54.4-38.7q0.8-0.8 1.9-1.1 1.1-0.3 2.2-0.2 1.1 0.2 2.1 0.8 0.9 0.6 1.5 1.5-0.5 5.2-1.5 10.3-1.1 5.1-2.6 10.1-1.6 5-3.7 9.8-2 4.7-4.6 9.3-1.1 0.2-2.3 0.5-1.1 0.2-2.3 0.5-1.1 0.3-2.3 0.7-1.1 0.3-2.2 0.6-4.9 1.5-10 2.5-5 1.1-10.1 1.9-5.1 0.8-10.2 1.2-5.1 0.4-10.2 0.5-8.7 0.3-17.4-0.6-8.7-1-17.1-3.2-8.5-2.2-16.5-5.6-8-3.5-15.5-8c-5.8-3.9-11.2-8.4-15.9-13.6-4.7-5.2-8.7-11-11.9-17.3-3.2-6.2-5.6-12.8-7.1-19.6-1.6-6.9-2.2-13.9-2-20.9-0.1-6.6 0.5-13.2 1.9-19.6 1.4-6.5 3.5-12.7 6.3-18.7 2.8-5.9 6.4-11.5 10.5-16.7 4.1-5.1 8.9-9.8 14.1-13.8q7.8-5.5 16.4-9.7 8.7-4.2 17.8-7 9.2-2.8 18.7-4.1 9.5-1.3 19.1-1 5.7 0 11.4 0.4 5.6 0.4 11.2 1.2 5.7 0.7 11.3 1.7 5.5 1 11 2.4c3.2 0.8 5 1 7.3 1.6 0.5 6 1 21.3 3.6 40.5zm180.5 0q-0.8 0.7-1.9 1.2-1 0.4-2.2 0.5-1.1 0.1-2.2-0.2-1.1-0.3-2-1c-4.4-16.4-16.1-37.9-50.4-37.9-33 0-66.4 23.4-66.4 76.6 0 55.3 34.5 82.2 68 82.2 33.6 0 47-21.8 54.4-38.6q0.8-0.8 1.9-1.1 1.1-0.4 2.2-0.2 1.1 0.1 2.1 0.7 1 0.6 1.6 1.6-0.5 5.2-1.6 10.3-1 5.1-2.6 10.1-1.6 4.9-3.6 9.7-2.1 4.8-4.7 9.3-1.1 0.3-2.3 0.5-1.1 0.3-2.2 0.6-1.2 0.3-2.3 0.6-1.1 0.3-2.3 0.7-4.9 1.4-9.9 2.5-5 1.1-10.1 1.9-5.1 0.7-10.2 1.1-5.2 0.5-10.3 0.5-8.7 0.4-17.4-0.6-8.7-0.9-17.1-3.1-8.4-2.2-16.5-5.7-8-3.4-15.4-7.9c-5.9-3.9-11.2-8.5-15.9-13.7-4.7-5.2-8.7-11-11.9-17.2-3.3-6.2-5.7-12.8-7.2-19.7-1.5-6.8-2.2-13.8-1.9-20.8-0.2-6.6 0.4-13.2 1.8-19.7 1.4-6.4 3.5-12.7 6.4-18.6 2.8-6 6.3-11.6 10.4-16.7 4.2-5.2 8.9-9.8 14.1-13.8q7.8-5.5 16.4-9.8 8.6-4.2 17.7-7 9.1-2.8 18.6-4.1 9.4-1.4 19-1.2 5.7 0.1 11.3 0.5 5.7 0.4 11.3 1.1 5.7 0.7 11.2 1.7 5.6 1.1 11.1 2.4c3.2 0.8 5 1 7.3 1.6 0.5 6 1 21.3 3.6 40.5zm70 90.3c0 27.5 2.4 28.3 14.6 29.9l5.7 0.8c1.8 1.8 1.6 6.4-0.5 7.5-11.4-0.5-23.1-0.8-34.6-0.8-11.4 0-23.6 0-35 0.8-2.1-1-2.4-5.7-0.6-7.5l5.8-0.8c12-1.6 14.5-2.4 14.5-29.9v-96.5c0-27.6-2.3-28.3-14.5-29.9l-5.8-0.8c-1.8-1.8-1.5-6.5 0.6-7.5q17.1 0.7 35 0.7c11.5 0 23.2 0 34.6-0.7 2 1 2.3 5.7 0.5 7.5l-5.7 0.8c-12.1 1.6-14.6 2.3-14.6 29.9zm105.2-112.2c0-10.9 0-11.4-7-11.4h-14.5c-24.2 0-30.9 2.9-40.5 24.2q-1.1 0.5-2.2 0.7-1.2 0.2-2.3-0.1-1.2-0.2-2.2-0.9-1-0.6-1.7-1.5c4.4-14 8.4-30.2 10.2-39.2q0.2-0.3 0.6-0.5 0.3-0.2 0.7-0.4 0.3-0.1 0.7-0.1 0.4-0.1 0.8 0 0.4-0.1 0.7 0 0.4 0 0.7 0.2 0.4 0.1 0.7 0.3 0.3 0.2 0.5 0.5c1.3 6.5 5 6.8 22.6 6.8h106c12.7 0 16.6-0.8 19.7-6.8q0.4-0.2 0.8-0.4 0.3-0.2 0.7-0.3 0.4-0.1 0.8-0.2 0.4-0.1 0.9-0.1 0.4-0.1 0.9 0 0.5 0.1 0.9 0.2 0.4 0.2 0.8 0.4 0.4 0.3 0.7 0.6-1 5.1-1.8 10.3-0.8 5.1-1.3 10.3-0.5 5.1-0.7 10.3-0.2 5.2-0.1 10.4-0.7 0.8-1.7 1.3-1 0.5-2.1 0.6-1.2 0.2-2.2-0.1-1.1-0.3-2-1c-3.4-20.2-8.3-25.2-36.2-25.2h-14.8c-6.8 0-7 0.6-7 11.4v111.9c0 27.5 2.3 28.3 14.5 29.5l9.4 1.1c1.8 1.8 1.5 6.5-0.6 7.5-15-0.5-26.7-0.8-38.1-0.8-11.5 0-23.7 0-40.3 0.8q-0.7-0.7-1.2-1.7-0.4-0.9-0.5-2-0.1-1 0.2-2 0.3-1 1-1.8l10.9-1.4c12.1-1 14.6-1.8 14.6-29.3zm133.7 86.1c-6.7 0-6.5 0-8.8 7l-10.6 31.2c-5.2 15.3-4.2 16.1 5.4 17.3l7.6 1.4c1.8 1.8 1.5 6.5-0.6 7.5-8.3-0.5-16.9-0.5-27.5-0.8-8.6 0-16.6 0-25.7 0.8q-0.7-0.8-1-1.8-0.4-0.9-0.4-2 0-1 0.4-2 0.3-0.9 1-1.7l7.8-1.4c7.5-1 10.3-3.3 14.2-12 3.2-6.8 7.3-17.7 12.8-31.7l35.5-92.4q1.2-2.2 2.1-4.5 0.9-2.3 1.5-4.7 0.7-2.4 1-4.8 0.3-2.5 0.4-5c9.1-1.8 17.6-12.4 18.1-12.4q0.6 0 1.2 0.1 0.7 0.1 1.3 0.4 0.5 0.3 1 0.7 0.5 0.4 0.9 0.9c4.2 11.6 7.5 24.1 11.7 35.5l37.3 108.6c6.1 17.4 7.3 19.2 20.6 21.6l3.9 0.8q0.7 0.7 1.1 1.7 0.3 1 0.3 2 0 1.1-0.3 2-0.4 1-1.1 1.8c-10.6-0.5-20.2-0.8-33.8-0.8-11.1 0-22.6 0.6-31.7 0.8q-0.7-0.7-1.1-1.7-0.5-0.9-0.6-1.9-0.1-1.1 0.1-2.1 0.3-1 0.8-1.8l5.8-0.8c9.3-1.1 10.1-2.6 6.7-13.8l-12-35.3c-2.7-6.7-3.4-6.7-10.7-6.7zm31.1-12.1c7.3 0 8.4-0.5 6.1-6.7l-11-31.2q-0.6-2.6-1.4-5.2-0.8-2.6-1.7-5.2-0.9-2.5-1.9-5.1-1.1-2.5-2.2-5h-0.5c-1.1 1.8-3.2 8.4-7.8 20.5l-11 30.2c-2.8 7.6-2 7.6 4.2 7.6zm251.4 31.3c0 7.8 0 39.7 0.8 45.7q-0.8 0.9-1.8 1.7-1 0.7-2.2 1.2-1.1 0.5-2.4 0.6-1.2 0.2-2.4 0.1c-4.2-5.4-11.7-14.3-30.2-35.6l-61-69.2c-16.9-18.9-25.2-28.8-29.6-32.7-0.8 0-0.8 2.9-0.8 16.6v50.5c0 19.5 0 43.3 4.7 51.1q1.1 1.5 2.6 2.7 1.5 1.2 3.2 2.1 1.7 0.8 3.6 1.3 1.9 0.4 3.8 0.5l5.7 0.7c2.4 1.8 2.1 6.8-0.5 7.6-9.6-0.6-19.8-0.8-29.6-0.8-10.9 0-18.1 0-27 0.8q-0.8-0.7-1.3-1.7-0.5-0.9-0.6-2 0-1 0.3-2.1 0.3-1 1-1.8l5.8-1.3c4.9-0.8 9.6-1.8 11.4-6 3.4-8.1 3.4-30.6 3.4-51.1v-61.5c0-20.2 0-24.1-8.6-31.9q-1.6-0.9-3.3-1.7-1.6-0.8-3.3-1.5-1.8-0.7-3.6-1.1-1.7-0.5-3.6-0.9l-3.9-0.8c-1.8-1.5-1.6-6.7 1-7.5 9.9 1 24.2 0.8 30.7 0.8 5.4 0 11.6 0 18.1-0.8 4.4 11.2 32.7 43.9 41.8 53.7l25.9 28.1c11 12 35.1 39.4 37.7 40.9 0.8-0.8 0.8-2 0.8-6v-50.8c0-19.4 0-43.3-5-51.1-2.3-3.8-6.5-5.4-12.9-6.4l-6.1-0.8c-2.3-1.8-2-6.8 0.6-7.5 10.1 0.5 19.7 0.7 29.9 0.7 11.1 0 18.1 0 27.2-0.7q0.9 0.6 1.3 1.6 0.5 0.9 0.6 2 0.1 1.1-0.3 2.1-0.3 1-1 1.8l-6 1.3c-5 0.7-9.4 1.8-11.2 6-3.6 8-3.6 30.7-3.6 51.1zm59.6-89.8c0-27.5-2.3-28.3-14.5-30.2l-4.2-0.5c-1.8-1.8-1.6-6.5 0.5-7.5 9.9 0.5 22.1 0.7 33.6 0.7h49.5c16.6 0 31.7 0 35.1-0.7 1.1 4.4 2.6 24.9 4.2 36.2-1 2-6 2.6-8.3 1-4.2-15-8.1-21.6-16.4-23.6q-2.5-0.7-5.1-1.1-2.6-0.5-5.2-0.8-2.6-0.3-5.2-0.4-2.7-0.1-5.3-0.1h-17.4c-11.1 0-11.1 0.6-11.1 15.4v43.8c0 6.8 0 7 6 7h12.4c22.6 0 27 0 28.8-11.4l1.9-8.8c2-1.8 7-1.8 8.3 0 0 7-0.8 16.4-0.8 26 0 9.6 0.5 18.9 0.8 27.2q-0.9 0.7-2 1-1.1 0.3-2.2 0.3-1.1 0-2.2-0.3-1-0.3-1.9-1l-1.9-10.3c-1.8-11-6-11.4-28.8-11.4h-12.4c-6 0-6 0.5-6 7v32.9c0 13.2 0.5 22.6 4.4 27 3.8 4.4 7.5 5.7 29.3 5.7 33 0.6 38.7-7 47.8-28q1-0.6 2.1-0.9 1.2-0.2 2.4 0 1.1 0.2 2.1 0.9 1 0.6 1.7 1.6-0.8 4.8-1.9 9.6-1.1 4.8-2.4 9.5-1.4 4.8-3.1 9.4-1.6 4.6-3.5 9.1c-11.4-0.5-33.8-0.7-64.1-0.7h-29.6c-11.5 0-27.3 0-39 0.7-2-1-2.3-5.7-0.5-7.5l9.6-1c12-1.3 14.5-2.1 14.5-29.6z"/>
</svg>