<svg width="320" height="47" viewBox="0 0 320 47" fill="none" xmlns="http://www.w3.org/2000/svg">
<path d="M175.044 23.465C175.044 23.1815 175.166 22.9563 175.407 22.7893L184.369 16.6376V14.754C184.369 14.754 177.526 14.7967 169.46 14.6453C169.286 6.47794 169.381 0.00388366 169.381 0.00388366H167.467L161.141 8.82367C160.971 9.06445 160.742 9.18096 160.454 9.18096C160.166 9.18096 159.937 9.06057 159.767 8.82367L153.513 0H151.599C151.599 0 151.642 6.71484 151.488 14.6414C143.434 14.7928 136.611 14.7501 136.611 14.7501V16.6337L145.573 22.7854C145.817 22.9524 145.936 23.1777 145.936 23.4612C145.936 23.7447 145.813 23.9699 145.573 24.1369L136.611 30.3663V32.2499C136.611 32.2499 143.189 32.1567 151.488 32.3275C151.646 40.2657 151.599 47 151.599 47H153.513L159.767 38.1802C159.937 37.9394 160.166 37.8229 160.454 37.8229C160.742 37.8229 160.971 37.9433 161.141 38.1802L167.467 47H169.381C169.381 47 169.286 40.5104 169.46 32.3275C177.774 32.1567 184.369 32.2499 184.369 32.2499V30.3663L175.407 24.1408C175.166 23.9738 175.044 23.7486 175.044 23.465Z" fill="black"/>
<path d="M36.8461 11.1361C38.1267 11.8781 39.1043 12.9569 39.7817 14.3789C40.4592 15.7978 40.7995 17.4919 40.7995 19.4611L40.7995 27.3624C40.7995 30.2003 40.0385 32.4693 38.5165 34.1695C36.9945 35.8697 34.9157 36.7198 32.2801 36.7198C30.489 36.7198 28.9608 36.3427 27.6925 35.5884C26.4242 34.8341 25.4652 33.7553 24.8125 32.3487C24.1598 30.9422 23.835 29.2791 23.835 27.3624L23.835 19.4611C23.835 17.5444 24.1876 15.8689 24.8898 14.4377C25.592 13.0064 26.585 11.9121 27.8657 11.1578C29.1464 10.4035 30.6035 10.0264 32.243 10.0264C34.0341 10.0264 35.5685 10.3973 36.8491 11.1392M29.4558 15.7391C28.8804 16.5336 28.5927 17.7206 28.5927 19.3065L28.5927 27.5139C28.5927 29.1245 28.8742 30.3085 29.4372 31.0627C30.0002 31.817 30.9468 32.1942 32.277 32.1942C33.6072 32.1942 34.5043 31.8047 35.1168 31.0256C35.7324 30.2466 36.0387 29.075 36.0387 27.517L36.0387 19.3096C36.0387 17.7237 35.7324 16.5367 35.1168 15.7422C34.5012 14.9508 33.5422 14.552 32.2368 14.552C30.9314 14.552 30.0281 14.9477 29.4527 15.7422" fill="black"/>
<path d="M54.0796 36.223L48.4742 36.223C49.1826 24.7202 48.898 14.9764 48.898 14.9764C45.9623 14.8187 43.1411 15.1279 43.1411 15.1279C43.4319 12.8094 43.1411 10.5249 43.1411 10.5249C51.28 10.9577 59.4158 10.5249 59.4158 10.5249C59.4158 10.5249 59.2209 12.5775 59.4158 15.1279C59.4158 15.1279 56.6874 14.8218 53.6589 14.9764C53.6589 14.9764 53.4207 24.3987 54.0827 36.223" fill="black"/>
<path d="M74.348 20.803C74.7315 15.7055 74.348 10.5244 74.348 10.5244C76.8196 10.7161 79.1088 10.5244 79.1088 10.5244C79.1088 10.5244 78.5984 24.9979 79.5326 36.2225L73.9272 36.2225C74.5057 30.1944 74.351 24.5219 74.351 24.5219L67.6723 24.5219C67.6723 24.5219 67.6135 30.0986 68.0961 36.2225L62.4907 36.2225C63.2455 24.9948 62.9145 10.5244 62.9145 10.5244C62.9145 10.5244 65.3305 10.7315 67.6754 10.5244C67.6754 10.5244 67.3722 16.1661 67.6754 20.803L74.3541 20.803L74.348 20.803Z" fill="black"/>
<path d="M88.779 21.0318C88.779 21.0318 91.461 21.3378 94.075 21.0318L94.075 24.8681C91.1857 24.7197 88.779 24.8681 88.779 24.8681C88.5624 28.1696 88.779 31.5422 88.779 31.5422C93.1872 31.7803 98.146 31.5422 98.146 31.5422C98.0253 33.768 98.146 36.2225 98.146 36.2225C91.2599 36.0927 84.0212 36.2225 84.0212 36.2225C84.4234 23.3719 84.0212 10.5244 84.0212 10.5244C84.0212 10.5244 91.2476 10.8521 98.1089 10.5244C98.1089 10.5244 98.0284 12.8522 98.1089 15.2047C98.1089 15.2047 93.1903 14.9945 88.7821 15.2047C88.7821 15.2047 88.4975 17.9868 88.7821 21.0349" fill="black"/>
<path d="M101.944 10.5197L109.622 10.5197C111.491 10.5197 113.078 10.8257 114.383 11.4409C115.689 12.0561 116.672 12.9124 117.337 14.0098C118.003 15.1103 118.337 16.3746 118.337 17.8059C118.337 19.2372 117.996 20.3841 117.319 21.3918C116.641 22.4027 115.648 23.1632 114.343 23.6732C114.086 23.7752 113.932 23.9483 113.882 24.1926C113.829 24.4368 113.882 24.7243 114.034 25.055C114.034 25.055 115.695 30.1866 119.178 36.2178C119.178 36.2178 116.205 35.8746 113.075 36.2178C113.075 36.2178 111.132 29.961 108.815 24.443L106.705 24.443C106.482 29.961 107.129 36.2178 107.129 36.2178C104.37 36.0879 101.524 36.2178 101.524 36.2178C102.121 23.3672 101.947 10.5166 101.947 10.5166M112.673 20.0317C113.223 19.5216 113.498 18.7797 113.498 17.8059C113.498 16.9373 113.198 16.2788 112.598 15.8306C111.995 15.3823 111.067 15.1598 109.814 15.1598L106.705 15.1598C106.312 18.146 106.705 20.7983 106.705 20.7983L109.929 20.7983C111.209 20.7983 112.122 20.5417 112.673 20.0317Z" fill="black"/>
<path d="M0.420711 10.3672L2.45621 10.3672C5.00212 14.7507 9.09787 19.8019 9.09787 19.8019C9.27729 20.0584 9.51858 20.1852 9.82792 20.1852C10.1373 20.1852 10.3786 20.0584 10.558 19.8019C10.558 19.8019 14.0969 15.3844 17.2739 10.3672L19.3094 10.3672C19.3094 10.3672 19.1238 23.3692 19.7332 36.2198C19.7332 36.2198 17.0852 36.0653 14.1278 36.2198L14.5888 22.6799C14.5888 22.4233 14.5052 22.2316 14.3382 22.1049C14.1711 21.9782 13.9732 21.9256 13.7442 21.9503C13.5153 21.9751 13.3359 22.0771 13.206 22.2564L9.82792 26.5904L6.5272 22.2564C6.39728 22.0771 6.22095 21.9751 5.98894 21.9503C5.75693 21.9256 5.55895 21.9751 5.39499 22.1049C5.22795 22.2316 5.14442 22.4233 5.14442 22.6799L5.60535 36.2198C2.86145 35.9632 1.57081e-09 36.2198 1.57081e-09 36.2198C0.510421 24.2688 0.420711 10.3672 0.420711 10.3672Z" fill="black"/>
<path d="M201.09 10.5254L208.768 10.5254C210.637 10.5254 212.224 10.8314 213.529 11.4466C214.834 12.0618 215.818 12.9181 216.483 14.0155C217.148 15.116 217.482 16.3803 217.482 17.8116C217.482 19.2429 217.142 20.3867 216.465 21.3975C215.787 22.4084 214.794 23.1689 213.489 23.6789C213.232 23.7809 213.077 23.9541 213.028 24.1983C212.975 24.4425 213.028 24.73 213.183 25.0607C213.183 25.0607 214.844 30.1923 218.327 36.2235C218.327 36.2235 215.354 35.8803 212.224 36.2235C212.224 36.2235 210.281 29.9667 207.964 24.4487L205.854 24.4487C205.631 29.9667 206.278 36.2235 206.278 36.2235C203.519 36.0936 200.673 36.2235 200.673 36.2235C201.27 23.3729 201.096 10.5254 201.096 10.5254M211.818 20.0405C212.369 19.5304 212.644 18.7885 212.644 17.8147C212.644 16.946 212.344 16.2876 211.741 15.8394C211.141 15.3911 210.213 15.1685 208.957 15.1685L205.848 15.1685C205.455 18.1547 205.848 20.8071 205.848 20.8071L209.071 20.8071C210.352 20.8071 211.265 20.5505 211.815 20.0405" fill="black"/>
<path d="M234.338 11.1361C235.619 11.8781 236.596 12.9569 237.274 14.3789C237.951 15.7978 238.291 17.4919 238.291 19.4611L238.291 27.3624C238.291 30.2003 237.53 32.4693 236.008 34.1726C234.486 35.8728 232.408 36.7229 229.772 36.7229C227.981 36.7229 226.453 36.3458 225.184 35.5915C223.919 34.8372 222.957 33.7584 222.304 32.3518C221.652 30.9453 221.327 29.2822 221.327 27.3655L221.327 19.4641C221.327 17.5475 221.68 15.872 222.382 14.4377C223.084 13.0064 224.077 11.9121 225.358 11.1578C226.638 10.4035 228.095 10.0264 229.735 10.0264C231.526 10.0264 233.06 10.3973 234.341 11.1392M226.948 15.7391C226.372 16.5336 226.085 17.7206 226.085 19.3065L226.085 27.5139C226.085 29.1245 226.366 30.3085 226.929 31.0627C227.492 31.817 228.439 32.1942 229.769 32.1942C231.099 32.1942 231.996 31.8047 232.609 31.0257C233.224 30.2466 233.531 29.075 233.531 27.517L233.531 19.3096C233.531 17.7237 233.224 16.5367 232.609 15.7422C231.993 14.9508 231.034 14.552 229.729 14.552C228.423 14.552 227.52 14.9477 226.945 15.7422" fill="black"/>
<path d="M254.303 11.1361C255.583 11.8781 256.561 12.9569 257.238 14.3789C257.916 15.7978 258.256 17.4919 258.256 19.4611L258.256 27.3624C258.256 30.2003 257.495 32.4693 255.973 34.1726C254.451 35.8728 252.372 36.7229 249.737 36.7229C247.946 36.7229 246.417 36.3458 245.149 35.5915C243.884 34.8372 242.922 33.7584 242.269 32.3518C241.616 30.9453 241.292 29.2822 241.292 27.3655L241.292 19.4641C241.292 17.5475 241.644 15.872 242.346 14.4377C243.049 13.0064 244.042 11.9121 245.322 11.1578C246.6 10.4035 248.06 10.0264 249.7 10.0264C251.491 10.0264 253.025 10.3973 254.306 11.1392M246.915 15.7391C246.34 16.5336 246.052 17.7206 246.052 19.3065L246.052 27.5139C246.052 29.1245 246.334 30.3085 246.897 31.0627C247.46 31.817 248.406 32.1942 249.737 32.1942C251.067 32.1942 251.964 31.8047 252.576 31.0257C253.192 30.2466 253.498 29.075 253.498 27.517L253.498 19.3096C253.498 17.7237 253.192 16.5367 252.576 15.7422C251.961 14.9508 251.002 14.552 249.696 14.552C248.391 14.552 247.488 14.9477 246.912 15.7422" fill="black"/>
<path d="M272.195 36.2251L266.589 36.2251C267.298 24.7223 267.013 15.1269 267.013 15.1269C264.077 14.9692 261.256 15.1269 261.256 15.1269C261.547 12.8084 261.256 10.5239 261.256 10.5239C269.392 10.9567 277.531 10.5239 277.531 10.5239C277.531 10.5239 277.336 12.5766 277.531 15.1269C277.531 15.1269 274.802 14.9692 271.774 15.1269C271.774 15.1269 271.536 24.3977 272.198 36.2251" fill="black"/>
</svg>
