<svg role="presentation" width="131" height="28" viewBox="0 0 131 28" fill="none" xmlns="http://www.w3.org/2000/svg">
  <path d="M42.0696 20.6533V8.76512H37.8447V6.71655H48.4903V8.76902H44.2262V20.6573L42.0696 20.6533Z" fill="#1D1D1B"/>
  <path d="M54.8759 17.4193L57.0129 17.7097C56.2273 19.8985 54.5499 20.8467 52.4326 20.8467C49.4667 20.8467 47.3887 18.6599 47.3887 15.5604C47.3887 12.461 49.4864 10.2761 52.299 10.2761C55.1116 10.2761 57.2899 12.3484 57.2899 16.2203H49.5905C49.7633 17.9033 50.8986 18.9859 52.4581 18.9859C53.6837 18.9879 54.5401 18.3102 54.8759 17.4193ZM49.6022 14.5925H55.0115C54.7797 13.3164 53.8173 12.135 52.297 12.135C50.7768 12.135 49.8144 13.3164 49.6022 14.5925Z" fill="#1D1D1B"/>
  <path d="M58.9453 10.4699H60.9841V11.669H61.0234C61.428 10.8946 62.2176 10.3731 63.4294 10.3731C63.6841 10.3716 63.9374 10.411 64.1797 10.4897V12.4651C63.938 12.3839 63.6842 12.3451 63.4294 12.3505C61.9485 12.3505 60.9841 13.3185 60.9841 14.808V20.6553H58.9453V10.4699Z" fill="#1D1D1B"/>
  <path d="M65.3662 10.4699H67.407V11.669H67.4443C67.8489 10.8946 68.6385 10.3731 69.8503 10.3731C70.1056 10.3716 70.3596 10.411 70.6026 10.4897V12.4651C70.3602 12.384 70.1058 12.3453 69.8503 12.3505C68.3694 12.3505 67.407 13.3185 67.407 14.808V20.6553H65.3662V10.4699Z" fill="#1D1D1B"/>
  <path d="M80.0736 19.1439C80.0711 19.6486 80.1033 20.1529 80.1699 20.6532H78.1684C78.1291 20.3233 78.0918 19.6654 78.0918 19.1617H78.0525C77.2669 20.3825 76.0314 20.8467 74.7999 20.8467C72.5863 20.8467 71.2959 19.6457 71.2959 17.7493C71.2959 15.7738 72.7592 14.8058 74.5878 14.709L78.0329 14.5352V14.0512C78.0329 12.7533 77.1097 11.9612 75.782 11.9612C74.4542 11.9612 73.6823 12.7158 73.5861 13.7806H71.508C71.7044 11.7083 73.2404 10.2761 75.8291 10.2761C78.5436 10.2761 80.0835 11.8822 80.0835 14.2843L80.0736 19.1439ZM78.0329 16.1235L75.2831 16.2775C74.0889 16.3348 73.4152 16.7615 73.4152 17.7295C73.4152 18.5809 74.0889 19.1123 75.2438 19.1123C76.5912 19.1123 78.0349 18.4347 78.0349 16.7299L78.0329 16.1235Z" fill="#1D1D1B"/>
  <path d="M94.9029 20.6533L90.3029 14.2055L89.1244 15.4065V20.6533H86.9639V6.71655H89.1244V12.6804L94.6083 6.71655H97.5545L91.721 12.7397L97.7843 20.6573L94.9029 20.6533Z" fill="#1D1D1B"/>
  <path d="M106.756 19.1439C106.754 19.6486 106.786 20.1529 106.852 20.6532H104.851C104.812 20.3233 104.772 19.6654 104.772 19.1617H104.735C103.949 20.3825 102.714 20.8467 101.481 20.8467C99.267 20.8467 97.9785 19.6457 97.9785 17.7493C97.9785 15.7738 99.4418 14.8058 101.27 14.709L104.715 14.5352V14.0512C104.715 12.7533 103.792 11.9612 102.463 11.9612C101.133 11.9612 100.365 12.7158 100.269 13.7806H98.1887C98.3851 11.7083 99.923 10.2761 102.51 10.2761C105.224 10.2761 106.764 11.8822 106.764 14.2843L106.756 19.1439ZM104.715 16.1235L101.966 16.2775C100.773 16.3348 100.1 16.7615 100.1 17.7295C100.1 18.5809 100.773 19.1123 101.928 19.1123C103.276 19.1123 104.719 18.4347 104.719 16.7299L104.715 16.1235Z" fill="#1D1D1B"/>
  <path d="M113.857 8.08751C113.65 8.03253 113.436 8.00663 113.221 8.01049C112.278 8.01049 111.585 8.51421 111.585 9.67578V10.466H113.857V12.3051H111.585V20.6494H109.544V12.3051H107.769V10.4699H109.558V9.75285C109.558 7.005 111.31 6.13184 113.023 6.13184C113.308 6.13349 113.593 6.16594 113.871 6.22863L113.857 8.08751Z" fill="#1D1D1B"/>
  <path d="M120.663 8.08751C120.456 8.03266 120.243 8.00676 120.029 8.01049C119.084 8.01049 118.391 8.51421 118.391 9.67578V10.466H120.663V12.3051H118.391V20.6494H116.352V12.3051H114.561V10.4699H116.352V9.75285C116.352 7.005 118.102 6.13184 119.817 6.13184C120.101 6.13349 120.385 6.16594 120.663 6.22863V8.08751Z" fill="#1D1D1B"/>
  <path d="M128.588 17.4193L130.723 17.7097C129.937 19.8985 128.26 20.8467 126.143 20.8467C123.179 20.8467 121.099 18.6599 121.099 15.5604C121.099 12.461 123.196 10.2761 126.009 10.2761C128.822 10.2761 130.996 12.3484 130.996 16.2203H123.295C123.469 17.9033 124.605 18.9859 126.164 18.9859C127.409 18.9879 128.246 18.3102 128.588 17.4193ZM123.312 14.5925H128.721C128.492 13.3164 127.529 12.135 126.007 12.135C124.485 12.135 123.53 13.3164 123.318 14.5925H123.312Z" fill="#1D1D1B"/>
  <path d="M6.03972 12.7002C6.03815 13.4867 6.19145 14.2658 6.49078 14.9925C6.79012 15.7192 7.22956 16.3791 7.78375 16.9341C8.33795 17.4891 8.99593 17.9282 9.71973 18.2262C10.4435 18.5241 11.2188 18.6749 12.0009 18.67C15.2162 18.67 17.964 16.0367 17.964 12.7258C17.976 11.9324 17.8284 11.1447 17.53 10.41C17.2316 9.6754 16.7886 9.00903 16.2277 8.45097L15.554 7.79907C14.9648 7.20643 13.0124 5.45225 12.9613 4.80035H11.0424C11.0168 5.45225 9.09787 7.22421 8.47721 7.79907C8.19044 8.05982 7.98421 8.26726 7.80154 8.45097C7.24134 9.00556 6.79693 9.66708 6.49438 10.3968C6.19184 11.1264 6.03726 11.9096 6.03972 12.7002V12.7002ZM15.9429 13.5614C15.7416 14.4625 15.2419 15.268 14.5256 15.8459C13.8093 16.4238 12.9191 16.7398 12.0009 16.7419C11.0856 16.7295 10.2007 16.4098 9.48676 15.8335C8.77287 15.2572 8.27096 14.4575 8.06081 13.5614H15.9429ZM9.1509 9.80808C9.30607 9.65202 9.51231 9.46832 9.77158 9.23522C10.6279 8.42726 11.4313 7.67064 12.0009 6.93973C12.5901 7.67064 13.4013 8.39961 14.2577 9.23522L14.8469 9.80808C15.3546 10.3119 15.7211 10.9415 15.9095 11.6334H8.11385C8.29229 10.9426 8.6502 10.3119 9.1509 9.8061V9.80808ZM12.0009 0C5.39155 0 0 6.28195 0 14C0 21.7181 5.39155 28 12.0009 28C18.6102 28 24.0037 21.7161 24.0037 14C24.0037 6.28392 18.6377 0 12.0009 0ZM12.0009 1.92804C17.5751 1.92804 22.0847 7.35067 22.0847 14C22.1065 16.2616 21.5664 18.4929 20.5134 20.4913H3.52563C2.46095 18.4959 1.90869 16.2646 1.91896 14C1.91896 7.35462 6.45415 1.93199 12.0009 1.93199V1.92804ZM12.0009 26.07C9.17644 26.07 6.63681 24.6635 4.79445 22.4213H19.2073C17.3944 24.6674 14.8273 26.0759 12.0009 26.0759V26.07Z" fill="#DC1915"/>
</svg>
